<svg version="1.1" xmlns="http://www.w3.org/2000/svg" xmlns:xlink="http://www.w3.org/1999/xlink" width="550" height="940"><g fill="#ffffff" fill-rule="nonzero" stroke="none" stroke-width="1" stroke-linecap="butt" stroke-linejoin="miter" stroke-miterlimit="10" stroke-dasharray="" stroke-dashoffset="0" font-family="none" font-weight="none" font-size="none" text-anchor="none" style="mix-blend-mode: normal"><g><g><path d="M196.79826,244.40368l-28.43764,-35.63203v35.63203h-2.03935v-38.40782h2.37925c3.17233,4.15424 7.91193,10.08347 14.21882,17.78769c6.53348,8.00635 11.29197,13.9167 14.27547,17.73104v-35.51873h2.03935v38.40782z"></path><path d="M223.47979,244.80022c-6.23136,0 -11.10314,-1.73723 -14.61536,-5.21168c-3.51222,-3.47445 -5.26833,-8.27071 -5.26833,-14.38877c0,-6.04253 1.76555,-10.72549 5.29665,-14.04888c3.5311,-3.32339 8.39345,-4.98509 14.58704,-4.98509c6.19359,0 11.07482,1.6617 14.64369,4.98509c3.56887,3.32339 5.3533,8.00635 5.3533,14.04888c0,6.15582 -1.79388,10.96152 -5.38163,14.41709c-3.58775,3.45557 -8.45954,5.18336 -14.61536,5.18336M223.47979,208.03522c-5.58934,0 -9.96073,1.50119 -13.11417,4.50357c-3.15344,3.00238 -4.73017,7.22271 -4.73017,12.66098c0,5.43827 1.58616,9.75302 4.75849,12.94423c3.17233,3.19121 7.53428,4.78681 13.08585,4.78681c5.6271,0 10.02682,-1.57672 13.19915,-4.73017c3.17233,-3.15344 4.75849,-7.48707 4.75849,-13.00088c0,-5.51381 -1.62393,-9.78134 -4.87179,-12.80261c-3.13456,-2.90797 -7.49651,-4.36195 -13.08585,-4.36195z"></path><path d="M261.37777,207.86528v36.53841h-2.03935v-36.53841h-14.72866v-1.86941h31.44003v1.86941z"></path><path d="M278.59897,244.40368v-38.40782h28.381v1.86941h-26.39829v15.57839h23.39591v1.81276h-23.39591v17.27785h26.68154v1.86941z"></path><path d="M326.41047,244.80022c-4.87179,0 -8.78055,-0.86861 -11.72628,-2.60584c-3.54998,-2.15265 -5.32498,-5.51381 -5.32498,-10.08347v-0.96303h2.03935v0.73643c0,7.36433 5.02285,11.0465 15.06855,11.0465c3.43669,0 6.30689,-0.52872 8.6106,-1.58616c3.0968,-1.4351 4.64519,-3.66328 4.64519,-6.68455c0,-2.07712 -0.56649,-3.66328 -1.69946,-4.75849c-0.94414,-0.94414 -2.51143,-1.73723 -4.70184,-2.37925c-1.13297,-0.33989 -3.83323,-0.96303 -8.10076,-1.86941c-4.79626,-1.01968 -8.04411,-1.96382 -9.74358,-2.83243c-3.24786,-1.73723 -4.87179,-4.26754 -4.87179,-7.59093c0,-6.42019 4.90955,-9.63028 14.72866,-9.63028c10.2723,0 15.48398,3.92764 15.63504,11.78293h-2.03935c-0.22659,-3.92764 -1.6617,-6.6279 -4.3053,-8.10076c-2.07712,-1.20851 -5.17391,-1.81276 -9.29039,-1.81276c-8.45954,0 -12.68931,2.58696 -12.68931,7.76087c0,2.56807 1.18962,4.49413 3.56887,5.77817c1.5484,0.83085 4.192,1.58616 7.93082,2.26595c6.83561,1.24627 11.38639,2.56807 13.65234,3.96541c2.64361,1.58616 3.96541,4.11647 3.96541,7.59093c0,3.51222 -1.79388,6.15582 -5.38163,7.93082c-2.7569,1.35957 -6.08029,2.03935 -9.97017,2.03935z"></path><path d="M397.84448,244.40368v-19.14726h-28.83419v19.14726h-2.03935v-38.40782h2.03935v17.4478h28.83419v-17.4478h2.03935v38.40782z"></path><path d="M433.30656,241.4013c-2.56807,2.26595 -6.5146,3.39892 -11.83958,3.39892c-5.36274,0 -9.32815,-1.13297 -11.89623,-3.39892c-2.71914,-2.37925 -4.07871,-6.17471 -4.07871,-11.38639v-24.01905h2.03935v23.9624c0,8.64837 4.64519,12.97255 13.93558,12.97255c9.29039,0 13.93558,-4.24865 13.93558,-12.74596v-24.18899h2.03935v24.13234c0,5.13615 -1.37845,8.89385 -4.13535,11.27309z"></path><path d="M460.61123,244.40368h-17.95764v-38.40782h18.69407c3.51222,0 6.38242,0.75532 8.6106,2.26595c2.53031,1.73723 3.79546,4.28642 3.79546,7.64757c0,4.00317 -2.39813,6.79784 -7.19438,8.38401c5.6271,1.20851 8.44066,4.4186 8.44066,9.63028c0,3.66328 -1.56728,6.42019 -4.70184,8.27071c-2.49254,1.47287 -5.72152,2.2093 -9.68693,2.2093M461.23437,207.86528h-16.54142v15.57839h16.48477c2.8702,0 5.24945,-0.58537 7.13774,-1.75611c2.26595,-1.35957 3.39892,-3.38004 3.39892,-6.06141c0,-2.68137 -1.13297,-4.70184 -3.39892,-6.06141c-1.85052,-1.13297 -4.21089,-1.69946 -7.08109,-1.69946M461.06442,225.31307h-16.37147v17.2212h16.59807c3.17233,0 5.81593,-0.62314 7.93082,-1.86941c2.53031,-1.51063 3.79546,-3.73881 3.79546,-6.68455c0,-3.0968 -1.30292,-5.38163 -3.90876,-6.85449c-2.03935,-1.20851 -4.72072,-1.81276 -8.04411,-1.81276z"></path></g><path d="M170.51326,255.16694v9.1346h-0.50984v-9.1346h-3.68217v-0.46735h7.86001v0.46735zM184.81707,264.30154v-4.78681h-7.20855v4.78681h-0.50984v-9.60195h0.50984v4.36195h7.20855v-4.36195h0.50984v9.60195zM189.00909,264.30154v-9.60195h7.09525v0.46735h-6.59957v3.8946h5.84898v0.45319h-5.84898v4.31946h6.67038v0.46735zM215.54902,264.30154h-0.46735l-2.3226,-5.43827l-2.26595,5.43827h-0.46735l-4.09287,-9.60195h0.524l3.80962,8.92217l2.2093,-5.39579l-1.48703,-3.52638h0.524l3.80962,8.92217l3.68217,-8.92217h0.524zM230.41932,264.30154l-1.37373,-3.08735h-5.26833l-1.40206,3.08735h-0.59481l4.4186,-9.60195h0.524l4.24865,9.60195h-0.55232M226.46807,255.40769l-2.46422,5.33914h4.84346zM237.86863,259.62802v4.67352h-0.50984v-4.67352l-4.43276,-4.92844h0.65146l4.02206,4.44692l4.03622,-4.44692h0.6373zM255.72716,255.16694v9.1346h-0.50984v-9.1346h-3.68217v-0.46735h7.86001v0.46735zM266.97193,264.40067c-1.55784,0 -2.77579,-0.43431 -3.65384,-1.30292c-0.87805,-0.86861 -1.31708,-2.06768 -1.31708,-3.59719c0,-1.51063 0.44139,-2.68137 1.32416,-3.51222c0.88278,-0.83085 2.09836,-1.24627 3.64676,-1.24627c1.5484,0 2.7687,0.41542 3.66092,1.24627c0.89222,0.83085 1.33833,2.00159 1.33833,3.51222c0,1.53896 -0.44847,2.74038 -1.34541,3.60427c-0.89694,0.86389 -2.11488,1.29584 -3.65384,1.29584M266.97193,255.20942c-1.39733,0 -2.49018,0.3753 -3.27854,1.12589c-0.78836,0.7506 -1.18254,1.80568 -1.18254,3.16525c0,1.35957 0.39654,2.43825 1.18962,3.23606c0.79308,0.7978 1.88357,1.1967 3.27146,1.1967c1.40678,0 2.5067,-0.39418 3.29979,-1.18254c0.79308,-0.78836 1.18962,-1.87177 1.18962,-3.25022c0,-1.37845 -0.40598,-2.44534 -1.21795,-3.20065c-0.78364,-0.72699 -1.87413,-1.09049 -3.27146,-1.09049zM286.5724,264.40067c-1.21795,0 -2.19514,-0.21715 -2.93157,-0.65146c-0.8875,-0.53816 -1.33124,-1.37845 -1.33124,-2.52087v-0.24076h0.50984v0.18411c0,1.84108 1.25571,2.76162 3.76714,2.76162c0.85917,0 1.57672,-0.13218 2.15265,-0.39654c0.7742,-0.35878 1.1613,-0.91582 1.1613,-1.67114c0,-0.51928 -0.14162,-0.91582 -0.42487,-1.18962c-0.23604,-0.23604 -0.62786,-0.43431 -1.17546,-0.59481c-0.28324,-0.08497 -0.95831,-0.24076 -2.02519,-0.46735c-1.19906,-0.25492 -2.01103,-0.49096 -2.43589,-0.70811c-0.81196,-0.43431 -1.21795,-1.06688 -1.21795,-1.89773c0,-1.60505 1.22739,-2.40757 3.68217,-2.40757c2.56807,0 3.87099,0.98191 3.90876,2.94573h-0.50984c-0.05665,-0.98191 -0.41542,-1.65697 -1.07633,-2.02519c-0.51928,-0.30213 -1.29348,-0.45319 -2.3226,-0.45319c-2.11488,0 -3.17233,0.64674 -3.17233,1.94022c0,0.64202 0.29741,1.12353 0.89222,1.44454c0.3871,0.20771 1.048,0.39654 1.9827,0.56649c1.7089,0.31157 2.8466,0.64202 3.41308,0.99135c0.6609,0.39654 0.99135,1.02912 0.99135,1.89773c0,0.87805 -0.44847,1.53896 -1.34541,1.9827c-0.68923,0.33989 -1.52007,0.50984 -2.49254,0.50984zM300.93286,263.55094c-0.64202,0.56649 -1.62865,0.84973 -2.95989,0.84973c-1.34069,0 -2.33204,-0.28324 -2.97406,-0.84973c-0.67978,-0.59481 -1.01968,-1.54368 -1.01968,-2.8466v-6.00476h0.50984v5.9906c0,2.16209 1.1613,3.24314 3.48389,3.24314c2.3226,0 3.48389,-1.06216 3.48389,-3.18649v-6.04725h0.50984v6.03309c0,1.28404 -0.34461,2.22346 -1.03384,2.81827zM314.13202,256.62564c-0.69867,-1.03856 -1.85997,-1.55784 -3.48389,-1.55784c-1.38789,0 -2.4949,0.40126 -3.32103,1.20378c-0.82613,0.80252 -1.23919,1.88357 -1.23919,3.24314c0,1.35013 0.39654,2.42409 1.18962,3.22189c0.79308,0.7978 1.86469,1.1967 3.21481,1.1967c1.55784,0 2.72858,-0.52872 3.51222,-1.58616l0.43903,0.28324c-0.8875,1.18018 -2.19986,1.77027 -3.93708,1.77027c-1.52007,0 -2.7215,-0.43431 -3.60427,-1.30292c-0.88278,-0.86861 -1.32416,-2.04407 -1.32416,-3.52638c0,-1.52007 0.45555,-2.72858 1.36665,-3.62552c0.9111,-0.89694 2.14557,-1.34541 3.70341,-1.34541c1.80332,0 3.10624,0.58065 3.90876,1.74195zM326.59474,256.62564c-0.69867,-1.03856 -1.85997,-1.55784 -3.48389,-1.55784c-1.38789,0 -2.4949,0.40126 -3.32103,1.20378c-0.82613,0.80252 -1.23919,1.88357 -1.23919,3.24314c0,1.35013 0.39654,2.42409 1.18962,3.22189c0.79308,0.7978 1.86469,1.1967 3.21481,1.1967c1.55784,0 2.72858,-0.52872 3.51222,-1.58616l0.43903,0.28324c-0.8875,1.18018 -2.19986,1.77027 -3.93708,1.77027c-1.52007,0 -2.7215,-0.43431 -3.60427,-1.30292c-0.88278,-0.86861 -1.32416,-2.04407 -1.32416,-3.52638c0,-1.52007 0.45555,-2.72858 1.36665,-3.62552c0.9111,-0.89694 2.14557,-1.34541 3.70341,-1.34541c1.80332,0 3.10624,0.58065 3.90876,1.74195zM330.58849,264.30154v-9.60195h7.09525v0.46735h-6.59957v3.8946h5.84898v0.45319h-5.84898v4.31946h6.67038v0.46735zM344.82148,264.40067c-1.21795,0 -2.19514,-0.21715 -2.93157,-0.65146c-0.8875,-0.53816 -1.33124,-1.37845 -1.33124,-2.52087v-0.24076h0.50984v0.18411c0,1.84108 1.25571,2.76162 3.76714,2.76162c0.85917,0 1.57672,-0.13218 2.15265,-0.39654c0.7742,-0.35878 1.1613,-0.91582 1.1613,-1.67114c0,-0.51928 -0.14162,-0.91582 -0.42487,-1.18962c-0.23604,-0.23604 -0.62786,-0.43431 -1.17546,-0.59481c-0.28324,-0.08497 -0.95831,-0.24076 -2.02519,-0.46735c-1.19906,-0.25492 -2.01103,-0.49096 -2.43589,-0.70811c-0.81196,-0.43431 -1.21795,-1.06688 -1.21795,-1.89773c0,-1.60505 1.22739,-2.40757 3.68217,-2.40757c2.56807,0 3.87099,0.98191 3.90876,2.94573h-0.50984c-0.05665,-0.98191 -0.41542,-1.65697 -1.07633,-2.02519c-0.51928,-0.30213 -1.29348,-0.45319 -2.3226,-0.45319c-2.11488,0 -3.17233,0.64674 -3.17233,1.94022c0,0.64202 0.29741,1.12353 0.89222,1.44454c0.3871,0.20771 1.048,0.39654 1.9827,0.56649c1.7089,0.31157 2.8466,0.64202 3.41308,0.99135c0.6609,0.39654 0.99135,1.02912 0.99135,1.89773c0,0.87805 -0.44847,1.53896 -1.34541,1.9827c-0.68923,0.33989 -1.52007,0.50984 -2.49254,0.50984zM356.19372,264.40067c-1.21795,0 -2.19514,-0.21715 -2.93157,-0.65146c-0.8875,-0.53816 -1.33124,-1.37845 -1.33124,-2.52087v-0.24076h0.50984v0.18411c0,1.84108 1.25571,2.76162 3.76714,2.76162c0.85917,0 1.57672,-0.13218 2.15265,-0.39654c0.7742,-0.35878 1.1613,-0.91582 1.1613,-1.67114c0,-0.51928 -0.14162,-0.91582 -0.42487,-1.18962c-0.23604,-0.23604 -0.62786,-0.43431 -1.17546,-0.59481c-0.28324,-0.08497 -0.95831,-0.24076 -2.02519,-0.46735c-1.19906,-0.25492 -2.01103,-0.49096 -2.43589,-0.70811c-0.81196,-0.43431 -1.21795,-1.06688 -1.21795,-1.89773c0,-1.60505 1.22739,-2.40757 3.68217,-2.40757c2.56807,0 3.87099,0.98191 3.90876,2.94573h-0.50984c-0.05665,-0.98191 -0.41542,-1.65697 -1.07633,-2.02519c-0.51928,-0.30213 -1.29348,-0.45319 -2.3226,-0.45319c-2.11488,0 -3.17233,0.64674 -3.17233,1.94022c0,0.64202 0.29741,1.12353 0.89222,1.44454c0.3871,0.20771 1.048,0.39654 1.9827,0.56649c1.7089,0.31157 2.8466,0.64202 3.41308,0.99135c0.6609,0.39654 0.99135,1.02912 0.99135,1.89773c0,0.87805 -0.44847,1.53896 -1.34541,1.9827c-0.68923,0.33989 -1.52007,0.50984 -2.49254,0.50984z"></path><g><path d="M77.8182,209.71237c-0.05078,0 -0.10156,-0.02539 -0.15234,-0.07617l-2.43736,-3.65604c-0.05078,-0.15234 -0.05078,-0.25389 0,-0.30467c0.05078,-0.05078 0.15234,-0.02539 0.30467,0.07617l2.43736,3.73221c0.05078,0.10156 0.05078,0.17772 0,0.2285h-0.15234M77.8182,209.71237h-0.07617c-0.15234,-0.10156 -0.17772,-0.20311 -0.07617,-0.30467l2.97053,-3.65604c0.10156,-0.10156 0.20311,-0.12695 0.30467,-0.07617c0.10156,0.10156 0.10156,0.20311 0,0.30467l-2.97053,3.73221h-0.15234M80.78873,206.05633h-5.4079c-0.15234,0 -0.2285,-0.07617 -0.2285,-0.2285c0,-0.10156 0.07617,-0.15234 0.2285,-0.15234h5.4079c0.15234,0 0.2285,0.05078 0.2285,0.15234c0,0.15234 -0.07617,0.2285 -0.2285,0.2285M75.38084,213.74925c-0.05078,0 -0.10156,-0.02539 -0.15234,-0.07617c-0.15234,0 -0.15234,-0.07617 0,-0.2285l2.43736,-3.96071c0.05078,-0.10156 0.15234,-0.12695 0.30467,-0.07617c0.05078,0.10156 0.05078,0.17772 0,0.2285l-2.43736,4.03688c-0.10156,0.05078 -0.15234,0.07617 -0.15234,0.07617M75.15234,213.74925c-0.10156,0 -0.15234,-0.07617 -0.15234,-0.2285v-7.69292c0,-0.10156 0.05078,-0.15234 0.15234,-0.15234c0.15234,0 0.2285,0.05078 0.2285,0.15234v7.69292c0,0.15234 -0.07617,0.2285 -0.2285,0.2285M78.0467,217.70997c-0.05078,0 -0.10156,-0.02539 -0.15234,-0.07617l-2.74203,-4.03688c0,-0.10156 0.02539,-0.17772 0.07617,-0.2285c0.10156,-0.10156 0.20311,-0.07617 0.30467,0.07617l2.66586,3.96071c0.15234,0.15234 0.15234,0.2285 0,0.2285c-0.05078,0.05078 -0.10156,0.07617 -0.15234,0.07617M78.0467,217.70997c-0.10156,0 -0.15234,-0.05078 -0.15234,-0.15234l-0.2285,-7.99759c0,-0.05078 0.05078,-0.12695 0.15234,-0.2285c0.15234,0 0.2285,0.07617 0.2285,0.2285l0.2285,7.92142c0,0.15234 -0.07617,0.2285 -0.2285,0.2285M84.44478,209.86471c-0.10156,0 -0.15234,-0.02539 -0.15234,-0.07617l-3.65604,-3.80838c-0.10156,-0.10156 -0.10156,-0.20311 0,-0.30467c0.05078,-0.05078 0.15234,-0.02539 0.30467,0.07617l3.65604,3.80838c0.05078,0.05078 0.02539,0.12695 -0.07617,0.2285c-0.05078,0.05078 -0.07617,0.07617 -0.07617,0.07617M85.13028,206.05633h-4.34155c-0.15234,0 -0.2285,-0.07617 -0.2285,-0.2285c0,-0.10156 0.07617,-0.15234 0.2285,-0.15234h4.34155c0.10156,0 0.15234,0.07617 0.15234,0.2285c0,0.10156 -0.05078,0.15234 -0.15234,0.15234M84.44478,209.86471h-0.07617c-0.10156,0 -0.15234,-0.07617 -0.15234,-0.2285l0.68551,-3.80838c0.10156,-0.10156 0.17772,-0.15234 0.2285,-0.15234c0.25389,0 0.30467,0.07617 0.15234,0.2285l-0.68551,3.80838c0,0.10156 -0.05078,0.15234 -0.15234,0.15234M85.13028,206.05633c-0.15234,0 -0.2285,-0.05078 -0.2285,-0.15234c0,-0.15234 0.07617,-0.2285 0.2285,-0.2285h2.66586c0.10156,0 0.15234,0.05078 0.15234,0.15234c0,0.15234 -0.05078,0.2285 -0.15234,0.2285h-2.66586M84.44478,209.86471c-0.05078,0 -0.10156,-0.02539 -0.15234,-0.07617c-0.10156,-0.05078 -0.10156,-0.12695 0,-0.2285l3.35137,-3.88454c0.10156,-0.10156 0.20311,-0.10156 0.30467,0c0.10156,0.10156 0.10156,0.20311 0,0.30467l-3.35137,3.80838c-0.10156,0.05078 -0.15234,0.07617 -0.15234,0.07617M90.46201,209.71237c-0.10156,0 -0.15234,-0.02539 -0.15234,-0.07617l-2.66586,-3.65604c-0.05078,-0.15234 -0.05078,-0.25389 0,-0.30467c0.10156,-0.05078 0.20311,-0.02539 0.30467,0.07617l2.66586,3.65604c0.05078,0.10156 0.02539,0.20311 -0.07617,0.30467h-0.07617M84.44478,209.86471c-0.15234,0 -0.2285,-0.05078 -0.2285,-0.15234c0,-0.15234 0.07617,-0.2285 0.2285,-0.2285l6.01724,-0.15234c0.10156,0 0.15234,0.07617 0.15234,0.2285c0,0.05078 -0.05078,0.12695 -0.15234,0.2285l-6.01724,0.07617M89.548,214.8156c-0.15234,0 -0.2285,-0.07617 -0.2285,-0.2285l0.91401,-5.02706c0.05078,-0.15234 0.12695,-0.2285 0.2285,-0.2285c0.10156,0.05078 0.15234,0.12695 0.15234,0.2285l-0.91401,5.10323c0,0.10156 -0.05078,0.15234 -0.15234,0.15234M94.87973,216.03428l-0.15234,-0.15234l-4.41772,-6.24574c-0.10156,-0.05078 -0.10156,-0.12695 0,-0.2285c0.10156,-0.10156 0.20311,-0.10156 0.30467,0l4.41772,6.32191c0.05078,0.10156 0.05078,0.17772 0,0.2285c-0.05078,0 -0.07617,0.01269 -0.07617,0.03808c0,0.02539 -0.02539,0.03808 -0.07617,0.03808M94.87973,216.03428v-0.07617l-5.4079,-1.14251c-0.20311,0 -0.2285,-0.07617 -0.07617,-0.2285c0,-0.10156 0.05078,-0.15234 0.15234,-0.15234l5.4079,1.21868c0.10156,0 0.15234,0.07617 0.15234,0.2285c-0.10156,0.10156 -0.17772,0.15234 -0.2285,0.15234M87.11064,218.39547c-0.05078,0 -0.12695,-0.05078 -0.2285,-0.15234c0,-0.15234 0.05078,-0.2285 0.15234,-0.2285l7.84526,-2.36119c0.05078,-0.05078 0.12695,-0.02539 0.2285,0.07617c0,0.15234 -0.05078,0.2285 -0.15234,0.2285l-7.84526,2.43736M87.11064,218.39547h-0.15234c-0.10156,-0.10156 -0.10156,-0.20311 0,-0.30467l2.43736,-3.57987c0.05078,-0.05078 0.12695,-0.07617 0.2285,-0.07617c0.15234,0.10156 0.17772,0.20311 0.07617,0.30467l-2.43736,3.57987c-0.05078,0.05078 -0.10156,0.07617 -0.15234,0.07617M92.21387,221.67068c-0.05078,0 -0.07617,-0.02539 -0.07617,-0.07617l-5.17939,-3.19904c-0.10156,-0.10156 -0.10156,-0.20311 0,-0.30467c0,-0.05078 0.07617,-0.07617 0.2285,-0.07617l5.10323,3.2752c0.10156,0.15234 0.12695,0.25389 0.07617,0.30467c-0.05078,0.05078 -0.10156,0.07617 -0.15234,0.07617M92.21387,221.67068h-0.07617c-0.10156,-0.10156 -0.12695,-0.20311 -0.07617,-0.30467l2.66586,-5.6364c0.10156,-0.10156 0.17772,-0.12695 0.2285,-0.07617c0.10156,0 0.15234,0.07617 0.15234,0.2285l-2.74203,5.6364c0,0.10156 -0.05078,0.15234 -0.15234,0.15234M97.08859,218.92865c-0.10156,0 -0.15234,-0.02539 -0.15234,-0.07617l-2.20886,-2.89437c-0.05078,-0.10156 -0.02539,-0.20311 0.07617,-0.30467c0.10156,-0.10156 0.17772,-0.07617 0.2285,0.07617l2.20886,2.89437c0.05078,0.15234 0.02539,0.25389 -0.07617,0.30467h-0.07617M92.21387,221.67068c-0.10156,-0.05078 -0.15234,-0.07617 -0.15234,-0.07617c-0.05078,-0.10156 -0.02539,-0.20311 0.07617,-0.30467l4.87472,-2.66586c0.15234,-0.15234 0.2285,-0.12695 0.2285,0.07617c0.05078,0.05078 0.02539,0.12695 -0.07617,0.2285l-4.87472,2.74203h-0.07617M75.38084,220.75667c-0.10156,-0.05078 -0.15234,-0.07617 -0.15234,-0.07617c-0.05078,-0.05078 -0.05078,-0.15234 0,-0.30467l2.66586,-2.97053c0.10156,-0.10156 0.20311,-0.10156 0.30467,0c0.15234,0 0.15234,0.07617 0,0.2285l-2.66586,3.0467c-0.10156,0.05078 -0.15234,0.07617 -0.15234,0.07617M75.38084,220.75667c-0.15234,0 -0.2285,-0.07617 -0.2285,-0.2285v-7.00741c0,-0.10156 0.05078,-0.15234 0.15234,-0.15234c0.15234,0 0.2285,0.05078 0.2285,0.15234v7.00741c0,0.15234 -0.05078,0.2285 -0.15234,0.2285M78.42754,224.33654c-0.05078,0 -0.12695,-0.05078 -0.2285,-0.15234l-0.30467,-6.62658c0,-0.15234 0.05078,-0.2285 0.15234,-0.2285c0.15234,0 0.2285,0.05078 0.2285,0.15234l0.30467,6.62658c0.05078,0.15234 0,0.2285 -0.15234,0.2285M78.42754,224.33654c-0.05078,0 -0.10156,-0.02539 -0.15234,-0.07617l-3.0467,-3.57987c-0.10156,-0.10156 -0.10156,-0.20311 0,-0.30467c0.10156,-0.10156 0.20311,-0.07617 0.30467,0.07617l3.0467,3.57987c0.05078,0.10156 0.05078,0.17772 0,0.2285c-0.05078,0.05078 -0.10156,0.07617 -0.15234,0.07617M75.30467,229.43977c-0.10156,0 -0.15234,-0.07617 -0.15234,-0.2285v-8.6831c0,-0.10156 0.07617,-0.15234 0.2285,-0.15234c0.10156,0 0.15234,0.05078 0.15234,0.15234v8.6831c0,0.15234 -0.07617,0.2285 -0.2285,0.2285M75.30467,229.43977l-0.07617,-0.07617c-0.05078,0 -0.07617,-0.07617 -0.07617,-0.2285l3.12287,-5.10323c0.05078,-0.05078 0.12695,-0.07617 0.2285,-0.07617c0.10156,0.15234 0.12695,0.25389 0.07617,0.30467l-3.0467,5.02706c-0.10156,0.10156 -0.17772,0.15234 -0.2285,0.15234M78.42754,224.33654c-0.15234,0 -0.2285,-0.05078 -0.2285,-0.15234c0,-0.15234 0.07617,-0.2285 0.2285,-0.2285l5.25556,-0.15234c0.15234,0 0.2285,0.05078 0.2285,0.15234c0,0.15234 -0.07617,0.2285 -0.2285,0.2285l-5.25556,0.15234M75.30467,229.43977l-0.15234,-0.15234c0,-0.10156 0.02539,-0.17772 0.07617,-0.2285l8.37843,-5.25556c0.05078,-0.05078 0.15234,-0.02539 0.30467,0.07617c0,0.15234 -0.02539,0.2285 -0.07617,0.2285l-8.37843,5.25556c-0.05078,0.05078 -0.10156,0.07617 -0.15234,0.07617M83.6831,224.18421c-0.10156,0 -0.15234,-0.05078 -0.15234,-0.15234c0,-0.15234 0.05078,-0.2285 0.15234,-0.2285l8.4546,-2.51353c0.15234,0 0.2285,0.05078 0.2285,0.15234c0.05078,0.05078 0.02539,0.12695 -0.07617,0.2285l-8.53077,2.51353h-0.07617M100.28763,223.4987c-0.10156,0 -0.15234,-0.02539 -0.15234,-0.07617l-3.19904,-4.57005c-0.10156,-0.10156 -0.07617,-0.17772 0.07617,-0.2285c0.05078,-0.05078 0.12695,-0.05078 0.2285,0l3.19904,4.57005c0.05078,0.10156 0.02539,0.20311 -0.07617,0.30467h-0.07617M100.28763,223.4987h-0.07617l-8.07376,-1.82802c-0.20311,0 -0.2285,-0.07617 -0.07617,-0.2285c0,-0.10156 0.07617,-0.15234 0.2285,-0.15234l7.99759,1.82802c0.10156,0.05078 0.15234,0.12695 0.15234,0.2285c0,0.10156 -0.05078,0.15234 -0.15234,0.15234M99.75445,226.85007h-0.07617l-7.54059,-5.25556c-0.20311,0 -0.2285,-0.07617 -0.07617,-0.2285c0.05078,-0.05078 0.12695,-0.07617 0.2285,-0.07617l7.61675,5.25556c0.05078,0.10156 0.05078,0.17772 0,0.2285c0,0.05078 -0.05078,0.07617 -0.15234,0.07617M99.75445,226.85007c-0.10156,0 -0.15234,-0.07617 -0.15234,-0.2285l0.45701,-3.35137c0,-0.10156 0.07617,-0.15234 0.2285,-0.15234c0.10156,0 0.15234,0.07617 0.15234,0.2285l-0.45701,3.35137c0,0.10156 -0.07617,0.15234 -0.2285,0.15234M92.97554,226.92624c-0.10156,0 -0.15234,-0.05078 -0.15234,-0.15234l-0.83784,-5.25556c0,-0.15234 0.07617,-0.2285 0.2285,-0.2285c0.10156,0 0.15234,0.05078 0.15234,0.15234l0.83784,5.25556c0,0.15234 -0.05078,0.2285 -0.15234,0.2285h-0.07617M93.05171,226.92624c-0.15234,0 -0.2285,-0.05078 -0.2285,-0.15234c0,-0.15234 0.07617,-0.2285 0.2285,-0.2285l6.70274,-0.07617c0.15234,0 0.2285,0.07617 0.2285,0.2285c0,0.10156 -0.07617,0.15234 -0.2285,0.15234l-6.70274,0.07617M93.05171,226.92624l-2.20886,-0.07617c-0.15234,0 -0.2285,-0.05078 -0.2285,-0.15234c0,-0.15234 0.07617,-0.2285 0.2285,-0.2285l2.20886,0.07617c0.10156,0 0.15234,0.07617 0.15234,0.2285c0,0.10156 -0.05078,0.15234 -0.15234,0.15234M87.94848,226.62157c-0.05078,0 -0.10156,-0.02539 -0.15234,-0.07617c-0.10156,-0.05078 -0.10156,-0.12695 0,-0.2285l4.26538,-4.95089c0.10156,-0.10156 0.20311,-0.10156 0.30467,0c0.15234,0 0.15234,0.07617 0,0.2285l-4.26538,4.95089c-0.10156,0.05078 -0.15234,0.07617 -0.15234,0.07617M90.84285,226.85007l-2.89437,-0.2285c-0.15234,0 -0.2285,-0.07617 -0.2285,-0.2285c0,-0.10156 0.07617,-0.15234 0.2285,-0.15234l2.89437,0.2285c0.10156,0 0.15234,0.07617 0.15234,0.2285c0,0.10156 -0.05078,0.15234 -0.15234,0.15234M93.50871,234.7715c-0.05078,0 -0.10156,-0.02539 -0.15234,-0.07617l-5.56023,-8.14993c-0.10156,-0.10156 -0.10156,-0.20311 0,-0.30467c0.05078,-0.05078 0.15234,-0.02539 0.30467,0.07617l5.56023,8.14993c0.05078,0.15234 0.05078,0.25389 0,0.30467h-0.15234M93.50871,234.7715c-0.10156,0 -0.15234,-0.05078 -0.15234,-0.15234l-0.53317,-7.84526c0,-0.15234 0.07617,-0.2285 0.2285,-0.2285c0.10156,0 0.15234,0.05078 0.15234,0.15234l0.53317,7.92142c0,0.10156 -0.07617,0.15234 -0.2285,0.15234M93.28021,230.58228c-0.10156,0 -0.15234,-0.05078 -0.15234,-0.15234c-0.10156,-0.10156 -0.07617,-0.17772 0.07617,-0.2285l6.47424,-3.65604c0.15234,-0.15234 0.2285,-0.12695 0.2285,0.07617c0.10156,0.10156 0.07617,0.17772 -0.07617,0.2285l-6.47424,3.65604l-0.07617,0.07617M103.41049,227.91642h-0.07617l-3.57987,-1.06635c-0.25389,0 -0.30467,-0.07617 -0.15234,-0.2285c0,-0.10156 0.07617,-0.15234 0.2285,-0.15234l3.65604,1.06635c0.10156,0.10156 0.15234,0.17772 0.15234,0.2285c-0.05078,0.10156 -0.12695,0.15234 -0.2285,0.15234M103.41049,227.91642c-0.05078,0 -0.10156,-0.02539 -0.15234,-0.07617l-3.12287,-4.41772c-0.15234,-0.15234 -0.15234,-0.2285 0,-0.2285c0.10156,-0.10156 0.20311,-0.10156 0.30467,0l3.12287,4.41772c0.10156,0.10156 0.10156,0.20311 0,0.30467h-0.15234M99.75445,232.1818l-6.55041,-1.67569c-0.10156,0 -0.15234,-0.07617 -0.15234,-0.2285c0.10156,-0.10156 0.17772,-0.12695 0.2285,-0.07617l6.55041,1.59952c0.10156,0.10156 0.15234,0.17772 0.15234,0.2285c-0.05078,0.10156 -0.12695,0.15234 -0.2285,0.15234M99.75445,232.25797c-0.10156,0 -0.15234,-0.07617 -0.15234,-0.2285v-5.33173c0,-0.15234 0.05078,-0.2285 0.15234,-0.2285c0.15234,0 0.2285,0.07617 0.2285,0.2285v5.33173c0,0.10156 -0.07617,0.17772 -0.2285,0.2285M93.50871,234.7715c-0.10156,0 -0.15234,-0.02539 -0.15234,-0.07617c-0.15234,-0.15234 -0.12695,-0.2285 0.07617,-0.2285l6.24574,-2.5897c0.10156,-0.05078 0.20311,-0.02539 0.30467,0.07617c0,0.15234 -0.05078,0.2285 -0.15234,0.2285l-6.24574,2.5897h-0.07617M99.75445,232.25797l-0.07617,-0.07617c-0.10156,-0.10156 -0.10156,-0.20311 0,-0.30467l3.57987,-4.26538c0.10156,-0.10156 0.20311,-0.10156 0.30467,0c0.05078,0.10156 0.05078,0.17772 0,0.2285l-3.65604,4.34155c-0.05078,0.05078 -0.10156,0.07617 -0.15234,0.07617M96.17458,238.35137c-0.05078,0 -0.07617,-0.02539 -0.07617,-0.07617c-0.20311,0 -0.2285,-0.07617 -0.07617,-0.2285l3.57987,-6.0934c0.10156,-0.10156 0.20311,-0.12695 0.30467,-0.07617c0.05078,0.05078 0.07617,0.12695 0.07617,0.2285l-3.65604,6.0934c0,0.10156 -0.05078,0.15234 -0.15234,0.15234M96.17458,238.35137c-0.05078,0 -0.07617,-0.01269 -0.07617,-0.03808c0,-0.02539 -0.02539,-0.03808 -0.07617,-0.03808l-2.66586,-3.57987c-0.05078,-0.05078 -0.02539,-0.12695 0.07617,-0.2285c0.05078,-0.05078 0.12695,-0.05078 0.2285,0l2.66586,3.57987c0.05078,0.10156 0.05078,0.17772 0,0.2285c-0.05078,0 -0.07617,0.01269 -0.07617,0.03808c0,0.02539 -0.02539,0.03808 -0.07617,0.03808M101.65864,239.26538c-0.10156,0 -0.17772,-0.02539 -0.2285,-0.07617l-1.82802,-7.08358c0,-0.15234 0.05078,-0.2285 0.15234,-0.2285c0.15234,-0.15234 0.2285,-0.12695 0.2285,0.07617l1.82802,7.08358c0.05078,0.15234 0,0.2285 -0.15234,0.2285M101.65864,239.26538h-0.07617l-5.4079,-0.91401c-0.15234,-0.10156 -0.20311,-0.17772 -0.15234,-0.2285c0,-0.15234 0.07617,-0.20311 0.2285,-0.15234l5.4079,0.91401c0.10156,0.05078 0.15234,0.12695 0.15234,0.2285c0,0.10156 -0.05078,0.15234 -0.15234,0.15234M103.02966,235.91401c-0.05078,0 -0.07617,-0.02539 -0.07617,-0.07617l-3.2752,-3.65604c-0.10156,-0.10156 -0.10156,-0.20311 0,-0.30467c0.05078,-0.05078 0.12695,-0.05078 0.2285,0l3.2752,3.73221c0.05078,0.10156 0.05078,0.17772 0,0.2285c0,0.05078 -0.05078,0.07617 -0.15234,0.07617M101.65864,239.26538h-0.07617c-0.10156,0 -0.15234,-0.07617 -0.15234,-0.2285l1.44718,-3.42754c0.05078,-0.05078 0.12695,-0.07617 0.2285,-0.07617c0.10156,0.05078 0.15234,0.12695 0.15234,0.2285l-1.44718,3.42754c0,0.05078 -0.05078,0.07617 -0.15234,0.07617M99.75445,232.25797c-0.10156,0 -0.15234,-0.07617 -0.15234,-0.2285c0,-0.10156 0.05078,-0.15234 0.15234,-0.15234l6.70274,-0.07617c0.15234,0 0.2285,0.07617 0.2285,0.2285c0,0.10156 -0.07617,0.15234 -0.2285,0.15234l-6.70274,0.07617M106.4572,232.1818c-0.05078,0 -0.10156,-0.02539 -0.15234,-0.07617l-3.0467,-4.26538c-0.05078,-0.05078 -0.02539,-0.12695 0.07617,-0.2285c0.05078,-0.05078 0.12695,-0.05078 0.2285,0l3.0467,4.26538c0.10156,0.10156 0.10156,0.20311 0,0.30467h-0.15234M103.02966,235.91401c-0.05078,0 -0.07617,-0.02539 -0.07617,-0.07617c-0.10156,-0.05078 -0.10156,-0.12695 0,-0.2285l3.35137,-3.73221c0.10156,-0.10156 0.20311,-0.10156 0.30467,0c0.05078,0.05078 0.05078,0.15234 0,0.30467l-3.42754,3.65604c0,0.05078 -0.05078,0.07617 -0.15234,0.07617M98.84044,242.08358c-0.05078,0 -0.10156,-0.02539 -0.15234,-0.07617l-2.66586,-3.73221c-0.05078,-0.10156 -0.02539,-0.20311 0.07617,-0.30467c0.05078,-0.05078 0.12695,-0.02539 0.2285,0.07617l2.66586,3.73221c0.10156,0.10156 0.10156,0.20311 0,0.30467h-0.15234M98.84044,242.08358c-0.05078,0 -0.07617,-0.02539 -0.07617,-0.07617c-0.10156,-0.05078 -0.10156,-0.12695 0,-0.2285l2.74203,-2.8182c0.10156,-0.10156 0.20311,-0.10156 0.30467,0v0.30467l-2.8182,2.74203c0,0.05078 -0.05078,0.07617 -0.15234,0.07617M101.81098,246.2728c-0.10156,0 -0.15234,-0.05078 -0.15234,-0.15234l-0.2285,-7.00741c0,-0.15234 0.07617,-0.2285 0.2285,-0.2285c0.10156,0 0.15234,0.07617 0.15234,0.2285l0.2285,7.00741c0,0.10156 -0.07617,0.15234 -0.2285,0.15234M101.81098,246.2728c-0.05078,0 -0.10156,-0.02539 -0.15234,-0.07617l-2.97053,-4.18922c0,-0.15234 0.02539,-0.2285 0.07617,-0.2285c0.15234,-0.15234 0.2285,-0.15234 0.2285,0l2.97053,4.18922c0.05078,0.15234 0.05078,0.25389 0,0.30467h-0.15234M106.07636,240.17939h-0.07617l-4.41772,-0.91401c-0.10156,0 -0.15234,-0.07617 -0.15234,-0.2285c0.10156,-0.10156 0.17772,-0.15234 0.2285,-0.15234l4.41772,0.91401c0.15234,0 0.20311,0.07617 0.15234,0.2285c0,0.10156 -0.05078,0.15234 -0.15234,0.15234M106.07636,240.17939c-0.10156,-0.05078 -0.15234,-0.07617 -0.15234,-0.07617l-3.0467,-4.26538c0,-0.15234 0.02539,-0.25389 0.07617,-0.30467c0.15234,0 0.2285,0.02539 0.2285,0.07617l3.0467,4.26538c0.15234,0.15234 0.12695,0.2285 -0.07617,0.2285c-0.05078,0.05078 -0.07617,0.07617 -0.07617,0.07617M110.41791,237.66586c-0.05078,0 -0.10156,-0.02539 -0.15234,-0.07617l-3.96071,-5.48406c-0.05078,-0.05078 -0.02539,-0.12695 0.07617,-0.2285c0.05078,-0.05078 0.12695,-0.05078 0.2285,0l3.96071,5.48406c0.10156,0.10156 0.10156,0.20311 0,0.30467h-0.15234M106.07636,240.17939c-0.10156,-0.05078 -0.15234,-0.07617 -0.15234,-0.07617c-0.05078,-0.15234 -0.02539,-0.25389 0.07617,-0.30467l4.34155,-2.51353c0.15234,0 0.2285,0.02539 0.2285,0.07617c0.05078,0.10156 0.02539,0.20311 -0.07617,0.30467l-4.34155,2.43736c-0.05078,0.05078 -0.07617,0.07617 -0.07617,0.07617M106.07636,240.17939c-0.15234,0 -0.2285,-0.07617 -0.2285,-0.2285l0.45701,-7.92142c0,-0.15234 0.05078,-0.2285 0.15234,-0.2285c0.15234,0 0.2285,0.07617 0.2285,0.2285l-0.45701,7.92142c0,0.15234 -0.05078,0.2285 -0.15234,0.2285M104.62918,250.38584h-0.07617c-0.10156,0 -0.15234,-0.07617 -0.15234,-0.2285l1.44718,-10.20645c0.10156,-0.10156 0.17772,-0.15234 0.2285,-0.15234c0.15234,0 0.20311,0.07617 0.15234,0.2285l-1.44718,10.20645c0,0.10156 -0.05078,0.15234 -0.15234,0.15234M104.62918,250.38584c-0.10156,0 -0.17772,-0.02539 -0.2285,-0.07617l-2.74203,-4.11305c0,-0.10156 0.02539,-0.17772 0.07617,-0.2285c0.15234,-0.15234 0.2285,-0.15234 0.2285,0l2.8182,4.11305c0,0.15234 -0.02539,0.25389 -0.07617,0.30467h-0.07617M104.62918,250.38584c-0.15234,0 -0.2285,-0.05078 -0.2285,-0.15234l-2.97053,-11.04429c0,-0.15234 0.05078,-0.2285 0.15234,-0.2285c0.15234,-0.15234 0.2285,-0.12695 0.2285,0.07617l2.97053,11.12046c0,0.15234 -0.05078,0.2285 -0.15234,0.2285M109.35156,243.22609h-0.15234l-3.2752,-3.12287c-0.10156,-0.05078 -0.10156,-0.12695 0,-0.2285c0.05078,-0.05078 0.15234,-0.07617 0.30467,-0.07617l3.19904,3.12287c0.10156,0.10156 0.10156,0.20311 0,0.30467h-0.07617M109.35156,243.22609h-0.07617c-0.10156,0 -0.15234,-0.07617 -0.15234,-0.2285l1.14251,-5.56023c0,-0.10156 0.07617,-0.15234 0.2285,-0.15234c0.20311,0 0.2285,0.07617 0.07617,0.2285l-1.06635,5.56023c0,0.10156 -0.05078,0.15234 -0.15234,0.15234M104.62918,250.38584h-0.15234c-0.05078,-0.05078 -0.07617,-0.15234 -0.07617,-0.30467l4.79856,-7.08358c0,-0.20311 0.07617,-0.2285 0.2285,-0.07617c0.10156,0.10156 0.12695,0.17772 0.07617,0.2285l-4.72239,7.15975c-0.10156,0.05078 -0.15234,0.07617 -0.15234,0.07617M114.53096,243.53077l-5.17939,-0.30467c-0.15234,0 -0.2285,-0.05078 -0.2285,-0.15234c0,-0.15234 0.07617,-0.2285 0.2285,-0.2285l5.17939,0.30467c0.15234,0 0.2285,0.07617 0.2285,0.2285c0,0.10156 -0.07617,0.15234 -0.2285,0.15234M114.53096,243.53077c-0.05078,0 -0.10156,-0.02539 -0.15234,-0.07617l-4.11305,-5.8649c-0.15234,-0.15234 -0.12695,-0.2285 0.07617,-0.2285c0.05078,-0.05078 0.12695,-0.05078 0.2285,0l4.11305,5.8649c0.10156,0.10156 0.10156,0.20311 0,0.30467h-0.15234M111.94126,250.69051c-0.10156,0 -0.15234,-0.02539 -0.15234,-0.07617l-2.66586,-7.46442c0,-0.15234 0.05078,-0.2285 0.15234,-0.2285c0.15234,-0.15234 0.2285,-0.12695 0.2285,0.07617l2.5897,7.46442c0.15234,0.15234 0.12695,0.2285 -0.07617,0.2285h-0.07617M111.94126,250.69051h-0.07617c-0.20311,0 -0.2285,-0.07617 -0.07617,-0.2285l2.5897,-7.15975c0,-0.10156 0.07617,-0.15234 0.2285,-0.15234c0.10156,0.10156 0.15234,0.17772 0.15234,0.2285l-2.66586,7.23592c0,0.05078 -0.05078,0.07617 -0.15234,0.07617M111.94126,250.69051l-7.38825,-0.30467c-0.10156,0 -0.15234,-0.07617 -0.15234,-0.2285c0,-0.10156 0.07617,-0.15234 0.2285,-0.15234l7.31208,0.30467c0.05078,0 0.10156,0.02539 0.15234,0.07617c0.05078,0.05078 0.05078,0.10156 0,0.15234c0,0.10156 -0.05078,0.15234 -0.15234,0.15234M107.67588,255.10823c-0.05078,0 -0.10156,-0.02539 -0.15234,-0.07617c-0.10156,-0.05078 -0.10156,-0.12695 0,-0.2285l4.26538,-4.41772c0.10156,-0.10156 0.20311,-0.10156 0.30467,0c0.10156,0.10156 0.10156,0.20311 0,0.30467l-4.26538,4.34155c-0.05078,0.05078 -0.10156,0.07617 -0.15234,0.07617M107.67588,255.10823c-0.10156,0 -0.15234,-0.02539 -0.15234,-0.07617l-3.12287,-4.72239c0,-0.15234 0.02539,-0.25389 0.07617,-0.30467c0.15234,0 0.25389,0.02539 0.30467,0.07617l3.0467,4.72239c0.10156,0.10156 0.07617,0.20311 -0.07617,0.30467h-0.07617M110.79875,259.52595c-0.10156,0 -0.15234,-0.02539 -0.15234,-0.07617l-3.12287,-4.41772c-0.10156,-0.10156 -0.07617,-0.20311 0.07617,-0.30467c0.10156,0 0.17772,0.02539 0.2285,0.07617l3.12287,4.41772c0.10156,0.10156 0.07617,0.20311 -0.07617,0.30467h-0.07617M110.79875,259.52595c-0.20311,0 -0.25389,-0.07617 -0.15234,-0.2285l1.06635,-8.75927c0.05078,-0.15234 0.12695,-0.2285 0.2285,-0.2285c0.15234,0.10156 0.20311,0.17772 0.15234,0.2285l-1.06635,8.83544c-0.10156,0.10156 -0.17772,0.15234 -0.2285,0.15234M116.13047,254.42272c-0.05078,0 -0.07617,-0.02539 -0.07617,-0.07617l-4.26538,-3.65604c-0.10156,-0.10156 -0.10156,-0.20311 0,-0.30467c0.10156,-0.10156 0.20311,-0.10156 0.30467,0l4.18922,3.73221c0.15234,0 0.15234,0.07617 0,0.2285c0,0.05078 -0.05078,0.07617 -0.15234,0.07617M110.79875,259.52595c-0.05078,0 -0.10156,-0.02539 -0.15234,-0.07617c-0.10156,-0.05078 -0.10156,-0.12695 0,-0.2285l5.33173,-5.10323c0.10156,-0.10156 0.20311,-0.10156 0.30467,0c0.05078,0.10156 0.05078,0.17772 0,0.2285l-5.33173,5.10323c-0.05078,0.05078 -0.10156,0.07617 -0.15234,0.07617M116.13047,254.42272c-0.10156,0 -0.15234,-0.05078 -0.15234,-0.15234l-1.59952,-10.89196c0,-0.15234 0.05078,-0.2285 0.15234,-0.2285c0.15234,0 0.2285,0.05078 0.2285,0.15234l1.59952,10.89196c0,0.15234 -0.05078,0.2285 -0.15234,0.2285h-0.07617M114.60712,264.40067c-0.05078,0 -0.10156,-0.02539 -0.15234,-0.07617l-3.80838,-4.87472c-0.10156,-0.05078 -0.10156,-0.12695 0,-0.2285c0.15234,-0.05078 0.25389,-0.05078 0.30467,0l3.80838,4.87472c0.15234,0.15234 0.15234,0.2285 0,0.2285c-0.05078,0.05078 -0.10156,0.07617 -0.15234,0.07617M114.60712,264.40067c-0.10156,0 -0.15234,-0.02539 -0.15234,-0.07617c-0.10156,-0.05078 -0.07617,-0.15234 0.07617,-0.30467l6.16957,-3.35137c0.15234,-0.15234 0.2285,-0.12695 0.2285,0.07617c0.10156,0.10156 0.07617,0.20311 -0.07617,0.30467l-6.16957,3.35137h-0.07617M120.7767,261.0493h-0.07617l-3.80838,-2.05652c-0.10156,-0.05078 -0.15234,-0.15234 -0.15234,-0.30467c0.05078,-0.05078 0.15234,-0.07617 0.30467,-0.07617l3.80838,2.05652c0.15234,0.05078 0.17772,0.12695 0.07617,0.2285c0,0.10156 -0.05078,0.15234 -0.15234,0.15234M116.96832,258.99278c-0.15234,0 -0.2285,-0.05078 -0.2285,-0.15234l-0.76168,-4.57005c0,-0.15234 0.05078,-0.2285 0.15234,-0.2285c0.05078,0 0.12695,0.05078 0.2285,0.15234l0.76168,4.57005c0,0.15234 -0.05078,0.2285 -0.15234,0.2285M110.79875,259.52595c-0.10156,0 -0.15234,-0.05078 -0.15234,-0.15234c-0.15234,-0.15234 -0.10156,-0.2285 0.15234,-0.2285l6.0934,-0.53317c0.15234,0 0.2285,0.05078 0.2285,0.15234c0,0.15234 -0.05078,0.2285 -0.15234,0.2285l-6.16957,0.53317M114.60712,264.40067h-0.07617c-0.10156,-0.10156 -0.12695,-0.17772 -0.07617,-0.2285l2.28503,-5.4079c0.05078,-0.10156 0.15234,-0.15234 0.30467,-0.15234c0.10156,0.10156 0.12695,0.20311 0.07617,0.30467l-2.36119,5.4079c-0.05078,0.05078 -0.10156,0.07617 -0.15234,0.07617M126.79393,264.40067h-0.07617l-6.01724,-3.42754c-0.20311,0 -0.2285,-0.07617 -0.07617,-0.2285c0.10156,-0.10156 0.17772,-0.12695 0.2285,-0.07617l6.0934,3.42754c0.05078,0 0.07617,0.07617 0.07617,0.2285c-0.05078,0.05078 -0.12695,0.07617 -0.2285,0.07617M126.79393,264.40067h-12.18681c-0.15234,0 -0.2285,-0.07617 -0.2285,-0.2285c0,-0.10156 0.07617,-0.15234 0.2285,-0.15234h12.18681c0.15234,0 0.2285,0.07617 0.2285,0.2285c0,0.10156 -0.07617,0.15234 -0.2285,0.15234M126.8701,261.0493h-6.0934c-0.15234,0 -0.2285,-0.07617 -0.2285,-0.2285c0,-0.10156 0.07617,-0.15234 0.2285,-0.15234h6.0934c0.10156,0 0.15234,0.07617 0.15234,0.2285c0,0.10156 -0.05078,0.15234 -0.15234,0.15234M126.79393,264.40067c-0.10156,0 -0.15234,-0.05078 -0.15234,-0.15234l-0.07617,-3.35137c0,-0.10156 0.05078,-0.15234 0.15234,-0.15234c0.15234,-0.05078 0.2285,0 0.2285,0.15234l0.07617,3.35137c0,0.10156 -0.07617,0.15234 -0.2285,0.15234M126.79393,261.12547l-0.15234,-0.15234l-4.49389,-6.39807c-0.10156,-0.10156 -0.10156,-0.20311 0,-0.30467c0.15234,0 0.25389,0.02539 0.30467,0.07617l4.49389,6.47424c0.05078,0.10156 0.05078,0.17772 0,0.2285c-0.05078,0 -0.07617,0.01269 -0.07617,0.03808c0,0.02539 -0.02539,0.03808 -0.07617,0.03808M120.7767,261.0493c-0.15234,-0.10156 -0.20311,-0.17772 -0.15234,-0.2285l1.44718,-6.39807c0.10156,-0.10156 0.17772,-0.15234 0.2285,-0.15234c0.25389,0 0.30467,0.07617 0.15234,0.2285l-1.44718,6.39807c-0.10156,0.10156 -0.17772,0.15234 -0.2285,0.15234M126.79393,256.32691h-0.07617l-4.49389,-1.67569c-0.10156,-0.10156 -0.15234,-0.17772 -0.15234,-0.2285c0.05078,-0.10156 0.15234,-0.15234 0.30467,-0.15234l4.49389,1.67569c0.20311,0 0.2285,0.07617 0.07617,0.2285c0,0.10156 -0.05078,0.15234 -0.15234,0.15234M126.8701,261.0493c-0.15234,0 -0.2285,-0.05078 -0.2285,-0.15234v-4.79856c0,-0.10156 0.05078,-0.15234 0.15234,-0.15234c0.15234,0 0.2285,0.05078 0.2285,0.15234v4.79856c0,0.10156 -0.05078,0.15234 -0.15234,0.15234M122.30005,254.65123l-6.16957,-0.2285c-0.10156,0 -0.15234,-0.07617 -0.15234,-0.2285c0,-0.10156 0.05078,-0.15234 0.15234,-0.15234l6.16957,0.2285c0.10156,0 0.15234,0.07617 0.15234,0.2285c0,0.10156 -0.05078,0.15234 -0.15234,0.15234M120.7767,261.0493c-0.05078,0 -0.07617,-0.01269 -0.07617,-0.03808c0,-0.02539 -0.02539,-0.03808 -0.07617,-0.03808l-4.64622,-6.62658c-0.10156,-0.05078 -0.07617,-0.15234 0.07617,-0.30467c0.10156,0 0.17772,0.02539 0.2285,0.07617l4.64622,6.62658c0.15234,0.15234 0.15234,0.2285 0,0.2285c-0.05078,0.05078 -0.10156,0.07617 -0.15234,0.07617M114.53096,243.53077c-0.10156,0 -0.15234,-0.05078 -0.15234,-0.15234v-4.64622c0,-0.10156 0.07617,-0.15234 0.2285,-0.15234c0.10156,0 0.15234,0.07617 0.15234,0.2285v4.57005c0,0.10156 -0.07617,0.15234 -0.2285,0.15234M119.25334,245.28262c-0.05078,0 -0.10156,-0.02539 -0.15234,-0.07617l-4.64622,-6.32191c-0.10156,-0.10156 -0.10156,-0.20311 0,-0.30467c0.15234,0 0.25389,0.02539 0.30467,0.07617l4.64622,6.32191c0.10156,0.10156 0.10156,0.20311 0,0.30467h-0.15234M119.25334,245.28262h-0.07617l-4.72239,-1.75185c-0.10156,-0.10156 -0.12695,-0.17772 -0.07617,-0.2285c0,-0.10156 0.07617,-0.15234 0.2285,-0.15234l4.72239,1.75185c0.10156,0.10156 0.15234,0.20311 0.15234,0.30467c-0.05078,0.05078 -0.12695,0.07617 -0.2285,0.07617M116.13047,254.42272h-0.07617c-0.10156,-0.10156 -0.12695,-0.17772 -0.07617,-0.2285l3.12287,-9.14011c0,-0.10156 0.07617,-0.15234 0.2285,-0.15234c0.10156,0.10156 0.15234,0.17772 0.15234,0.2285l-3.12287,9.14011c-0.10156,0.10156 -0.17772,0.15234 -0.2285,0.15234M123.8234,245.58729l-4.57005,-0.30467c-0.10156,0 -0.15234,-0.07617 -0.15234,-0.2285c0,-0.10156 0.05078,-0.15234 0.15234,-0.15234l4.57005,0.30467c0.15234,0 0.2285,0.07617 0.2285,0.2285c0,0.10156 -0.07617,0.15234 -0.2285,0.15234M116.13047,254.42272c-0.05078,0 -0.07617,-0.02539 -0.07617,-0.07617c-0.10156,-0.10156 -0.12695,-0.17772 -0.07617,-0.2285l7.69292,-8.83544c0.10156,-0.10156 0.20311,-0.10156 0.30467,0c0.05078,0.10156 0.05078,0.17772 0,0.2285l-7.69292,8.83544c0,0.05078 -0.05078,0.07617 -0.15234,0.07617M124.58507,250.91902c-0.15234,0 -0.2285,-0.05078 -0.2285,-0.15234l-0.68551,-5.33173c-0.15234,-0.15234 -0.10156,-0.2285 0.15234,-0.2285c0.05078,0 0.12695,0.05078 0.2285,0.15234l0.68551,5.33173c0,0.15234 -0.05078,0.2285 -0.15234,0.2285M116.13047,254.42272c-0.10156,0 -0.15234,-0.05078 -0.15234,-0.15234c-0.05078,-0.05078 -0.02539,-0.12695 0.07617,-0.2285l8.4546,-3.50371c0.10156,0 0.17772,0.02539 0.2285,0.07617c0,0.15234 -0.02539,0.25389 -0.07617,0.30467l-8.4546,3.50371h-0.07617M122.30005,254.65123h-0.07617c-0.15234,-0.10156 -0.17772,-0.20311 -0.07617,-0.30467l2.28503,-3.73221c0,-0.20311 0.07617,-0.2285 0.2285,-0.07617c0.05078,0.05078 0.07617,0.15234 0.07617,0.30467l-2.28503,3.73221c-0.05078,0.05078 -0.10156,0.07617 -0.15234,0.07617M124.58507,250.91902h-0.07617c-0.10156,-0.05078 -0.15234,-0.15234 -0.15234,-0.30467l2.28503,-5.8649c0,-0.20311 0.07617,-0.2285 0.2285,-0.07617c0.20311,0 0.2285,0.07617 0.07617,0.2285l-2.20886,5.8649c0,0.10156 -0.05078,0.15234 -0.15234,0.15234M123.8234,245.58729c-0.10156,0 -0.15234,-0.05078 -0.15234,-0.15234c-0.05078,-0.05078 0,-0.12695 0.15234,-0.2285l2.89437,-0.53317c0.15234,0 0.2285,0.05078 0.2285,0.15234c0.05078,0.05078 0,0.12695 -0.15234,0.2285l-2.89437,0.53317h-0.07617M126.79393,256.32691c-0.10156,0 -0.15234,-0.07617 -0.15234,-0.2285l-0.07617,-11.2728c0,-0.10156 0.07617,-0.15234 0.2285,-0.15234c0.10156,0 0.15234,0.05078 0.15234,0.15234l0.07617,11.2728c0,0.15234 -0.07617,0.2285 -0.2285,0.2285M123.8234,245.58729h-0.07617c-0.20311,0 -0.2285,-0.07617 -0.07617,-0.2285l2.97053,-7.31208c0,-0.10156 0.07617,-0.12695 0.2285,-0.07617c0.20311,0 0.2285,0.07617 0.07617,0.2285l-2.97053,7.31208c0,0.05078 -0.05078,0.07617 -0.15234,0.07617M126.71776,245.05412c-0.10156,-0.10156 -0.15234,-0.17772 -0.15234,-0.2285v-6.70274c0,-0.15234 0.07617,-0.2285 0.2285,-0.2285c0.10156,0 0.15234,0.07617 0.15234,0.2285v6.70274c0,0.15234 -0.07617,0.2285 -0.2285,0.2285M119.25334,245.28262c-0.25389,0 -0.30467,-0.07617 -0.15234,-0.2285l1.67569,-5.71257c0,-0.10156 0.07617,-0.15234 0.2285,-0.15234c0.10156,0.10156 0.12695,0.17772 0.07617,0.2285l-1.59952,5.71257c-0.10156,0.10156 -0.17772,0.15234 -0.2285,0.15234M123.8234,245.58729c-0.10156,0 -0.15234,-0.02539 -0.15234,-0.07617l-2.89437,-6.01724c-0.05078,-0.10156 -0.02539,-0.20311 0.07617,-0.30467c0.15234,0 0.2285,0.02539 0.2285,0.07617l2.89437,6.0934c0.05078,0.05078 0.02539,0.12695 -0.07617,0.2285h-0.07617M114.60712,238.96071c-0.05078,0 -0.10156,-0.02539 -0.15234,-0.07617c-0.15234,0 -0.15234,-0.07617 0,-0.2285l3.12287,-4.57005c0,-0.20311 0.07617,-0.2285 0.2285,-0.07617c0.10156,0.10156 0.12695,0.17772 0.07617,0.2285l-3.12287,4.64622c-0.05078,0.05078 -0.10156,0.07617 -0.15234,0.07617M120.92903,239.57005c-0.10156,0 -0.15234,-0.02539 -0.15234,-0.07617l-3.19904,-5.25556c-0.10156,-0.05078 -0.10156,-0.12695 0,-0.2285c0.15234,-0.05078 0.25389,-0.02539 0.30467,0.07617l3.19904,5.17939c0.05078,0.10156 0.02539,0.20311 -0.07617,0.30467h-0.07617M120.92903,239.57005l-6.32191,-0.60934c-0.15234,0 -0.2285,-0.07617 -0.2285,-0.2285c0.10156,-0.10156 0.17772,-0.15234 0.2285,-0.15234l6.32191,0.60934c0.15234,0 0.20311,0.07617 0.15234,0.2285c0,0.10156 -0.05078,0.15234 -0.15234,0.15234M120.92903,239.57005c-0.10156,0 -0.15234,-0.05078 -0.15234,-0.15234c-0.15234,-0.15234 -0.12695,-0.2285 0.07617,-0.2285l5.8649,-1.29485c0.15234,0 0.2285,0.05078 0.2285,0.15234c0.05078,0.15234 0,0.2285 -0.15234,0.2285l-5.78873,1.29485h-0.07617M126.79393,238.2752c-0.15234,0 -0.2285,-0.05078 -0.2285,-0.15234v-6.0934c0,-0.10156 0.05078,-0.15234 0.15234,-0.15234c0.15234,0 0.2285,0.05078 0.2285,0.15234v6.0934c0,0.10156 -0.05078,0.15234 -0.15234,0.15234M120.92903,239.57005c-0.05078,0 -0.10156,-0.02539 -0.15234,-0.07617c-0.15234,0 -0.15234,-0.07617 0,-0.2285l5.94107,-7.38825c0,-0.15234 0.07617,-0.15234 0.2285,0c0.10156,0.10156 0.10156,0.20311 0,0.30467l-5.8649,7.31208c-0.05078,0.05078 -0.10156,0.07617 -0.15234,0.07617M117.72999,234.31449c-0.10156,0 -0.17772,-0.02539 -0.2285,-0.07617c0,-0.15234 0.05078,-0.2285 0.15234,-0.2285l9.14011,-2.13269c0.15234,-0.15234 0.2285,-0.12695 0.2285,0.07617c0,0.15234 -0.05078,0.2285 -0.15234,0.2285l-9.14011,2.13269M117.72999,234.31449c-0.10156,0 -0.17772,-0.02539 -0.2285,-0.07617l-3.0467,-6.39807c-0.15234,-0.15234 -0.12695,-0.2285 0.07617,-0.2285c0.05078,-0.05078 0.12695,-0.02539 0.2285,0.07617l3.12287,6.39807c0.15234,0.15234 0.12695,0.2285 -0.07617,0.2285h-0.07617M114.60712,238.96071c-0.15234,0 -0.2285,-0.07617 -0.2285,-0.2285v-10.96813c0,-0.15234 0.07617,-0.2285 0.2285,-0.2285c0.10156,0 0.15234,0.07617 0.15234,0.2285v10.96813c0,0.15234 -0.05078,0.2285 -0.15234,0.2285M120.16735,229.43977h-0.07617l-5.56023,-1.52335c-0.10156,0 -0.15234,-0.07617 -0.15234,-0.2285c0.10156,-0.10156 0.17772,-0.12695 0.2285,-0.07617l5.56023,1.44718c0.10156,0 0.15234,0.07617 0.15234,0.2285c0,0.10156 -0.05078,0.15234 -0.15234,0.15234M117.72999,234.31449h-0.07617c-0.10156,0 -0.15234,-0.07617 -0.15234,-0.2285l2.43736,-4.95089c0.10156,-0.10156 0.20311,-0.12695 0.30467,-0.07617c0.10156,0.10156 0.12695,0.17772 0.07617,0.2285l-2.43736,4.95089c0,0.05078 -0.05078,0.07617 -0.15234,0.07617M126.79393,232.25797c0,-0.05078 -0.02539,-0.07617 -0.07617,-0.07617l-6.62658,-2.8182c-0.10156,0 -0.15234,-0.07617 -0.15234,-0.2285c0.10156,-0.10156 0.20311,-0.12695 0.30467,-0.07617l6.62658,2.8182c0.10156,0 0.15234,0.07617 0.15234,0.2285c-0.10156,0.10156 -0.17772,0.15234 -0.2285,0.15234M126.79393,232.25797c-0.10156,-0.10156 -0.15234,-0.17772 -0.15234,-0.2285l0.07617,-5.8649c0,-0.10156 0.05078,-0.15234 0.15234,-0.15234c0.15234,0 0.2285,0.05078 0.2285,0.15234l-0.07617,5.8649c0,0.15234 -0.07617,0.2285 -0.2285,0.2285M120.16735,229.43977c-0.05078,0 -0.12695,-0.05078 -0.2285,-0.15234c0,-0.15234 0.05078,-0.2285 0.15234,-0.2285l6.70274,-3.0467c0.10156,-0.05078 0.20311,-0.02539 0.30467,0.07617c0,0.15234 -0.05078,0.2285 -0.15234,0.2285l-6.70274,3.0467l-0.07617,0.07617M126.8701,226.39307c0,0 -0.05078,-0.05078 -0.15234,-0.15234l-2.36119,-5.33173c0,-0.15234 0.05078,-0.2285 0.15234,-0.2285c0.05078,-0.05078 0.12695,-0.02539 0.2285,0.07617l2.36119,5.33173c0,0.15234 -0.05078,0.2285 -0.15234,0.2285c0,0.05078 -0.02539,0.07617 -0.07617,0.07617M120.16735,229.43977c-0.05078,0 -0.07617,-0.02539 -0.07617,-0.07617c-0.10156,0 -0.15234,-0.07617 -0.15234,-0.2285l4.41772,-8.37843c0.10156,-0.10156 0.20311,-0.12695 0.30467,-0.07617c0.05078,0 0.07617,0.07617 0.07617,0.2285l-4.41772,8.37843c-0.10156,0.10156 -0.15234,0.15234 -0.15234,0.15234M120.16735,229.43977c-0.15234,0 -0.2285,-0.07617 -0.2285,-0.2285l-0.07617,-5.10323c0,-0.15234 0.05078,-0.2285 0.15234,-0.2285c0.15234,0 0.2285,0.07617 0.2285,0.2285l0.07617,5.10323c0,0.15234 -0.05078,0.2285 -0.15234,0.2285M120.01502,224.26038c-0.05078,0 -0.10156,-0.02539 -0.15234,-0.07617c0,-0.10156 0.02539,-0.17772 0.07617,-0.2285l4.49389,-3.2752c0.10156,-0.10156 0.20311,-0.10156 0.30467,0c0,0.15234 -0.02539,0.25389 -0.07617,0.30467l-4.49389,3.2752h-0.15234M120.16735,229.43977c-0.05078,0 -0.12695,-0.05078 -0.2285,-0.15234l-3.96071,-7.08358c-0.15234,-0.15234 -0.15234,-0.2285 0,-0.2285c0.15234,-0.05078 0.25389,-0.05078 0.30467,0l4.03688,7.15975c0.15234,0.15234 0.12695,0.2285 -0.07617,0.2285c-0.05078,0.05078 -0.07617,0.07617 -0.07617,0.07617M120.01502,224.26038h-0.07617l-3.88454,-1.98036c-0.10156,-0.05078 -0.15234,-0.12695 -0.15234,-0.2285c0.05078,-0.10156 0.15234,-0.15234 0.30467,-0.15234l3.88454,2.05652c0.10156,0 0.15234,0.07617 0.15234,0.2285c-0.05078,0.05078 -0.12695,0.07617 -0.2285,0.07617M114.60712,227.91642h-0.07617c-0.10156,0 -0.15234,-0.07617 -0.15234,-0.2285l1.52335,-5.6364c0.10156,-0.10156 0.17772,-0.15234 0.2285,-0.15234c0.10156,0.05078 0.15234,0.12695 0.15234,0.2285l-1.52335,5.71257c0,0.05078 -0.05078,0.07617 -0.15234,0.07617M114.60712,227.91642c-0.15234,0 -0.2285,-0.05078 -0.2285,-0.15234v-9.36861c0,-0.10156 0.07617,-0.15234 0.2285,-0.15234c0.10156,0 0.15234,0.05078 0.15234,0.15234v9.36861c0,0.10156 -0.05078,0.15234 -0.15234,0.15234M116.13047,222.28002c-0.10156,0 -0.17772,-0.02539 -0.2285,-0.07617l-1.44718,-3.73221c-0.15234,-0.15234 -0.12695,-0.2285 0.07617,-0.2285c0.15234,-0.15234 0.2285,-0.12695 0.2285,0.07617l1.52335,3.73221c0.05078,0.05078 0.02539,0.12695 -0.07617,0.2285h-0.07617M124.58507,220.98517h-0.07617c-0.10156,0 -0.15234,-0.07617 -0.15234,-0.2285l2.36119,-5.33173c0,-0.20311 0.07617,-0.2285 0.2285,-0.07617c0.20311,0 0.2285,0.07617 0.07617,0.2285l-2.28503,5.33173c0,0.05078 -0.05078,0.07617 -0.15234,0.07617M126.8701,226.39307c-0.10156,0 -0.15234,-0.07617 -0.15234,-0.2285l-0.07617,-10.58729c0,-0.15234 0.07617,-0.2285 0.2285,-0.2285c0.10156,0 0.15234,0.05078 0.15234,0.15234l0.07617,10.66346c0,0.10156 -0.07617,0.17772 -0.2285,0.2285M116.13047,222.28002c-0.15234,0 -0.2285,-0.05078 -0.2285,-0.15234c0,-0.15234 0.05078,-0.2285 0.15234,-0.2285l8.4546,-1.29485c0.15234,0 0.2285,0.07617 0.2285,0.2285c0,0.10156 -0.05078,0.15234 -0.15234,0.15234l-8.4546,1.29485M114.60712,218.62398c-0.10156,0 -0.15234,-0.05078 -0.15234,-0.15234c-0.10156,-0.10156 -0.07617,-0.17772 0.07617,-0.2285l5.4079,-3.2752c0.15234,-0.15234 0.2285,-0.12695 0.2285,0.07617c0.15234,0.15234 0.15234,0.2285 0,0.2285l-5.48406,3.2752l-0.07617,0.07617M116.13047,222.28002h-0.15234c-0.05078,-0.05078 -0.05078,-0.15234 0,-0.30467l3.88454,-6.93125c0.10156,-0.10156 0.20311,-0.12695 0.30467,-0.07617c0.05078,0.05078 0.07617,0.12695 0.07617,0.2285l-3.96071,7.00741c-0.05078,0.05078 -0.10156,0.07617 -0.15234,0.07617M124.58507,220.98517c-0.10156,0 -0.15234,-0.02539 -0.15234,-0.07617l-4.57005,-5.6364c0,-0.15234 0.02539,-0.25389 0.07617,-0.30467c0.10156,-0.10156 0.17772,-0.07617 0.2285,0.07617l4.57005,5.6364c0,0.15234 -0.02539,0.25389 -0.07617,0.30467h-0.07617M126.8701,215.72961l-6.85508,-0.38084c-0.10156,-0.10156 -0.15234,-0.17772 -0.15234,-0.2285c0,-0.10156 0.05078,-0.15234 0.15234,-0.15234l6.85508,0.38084c0.20311,0 0.25389,0.05078 0.15234,0.15234c0,0.15234 -0.05078,0.2285 -0.15234,0.2285M120.01502,215.34877c0,0 -0.05078,-0.05078 -0.15234,-0.15234c-0.15234,-0.15234 -0.12695,-0.2285 0.07617,-0.2285l6.77891,-3.2752c0.15234,-0.05078 0.25389,-0.02539 0.30467,0.07617c0,0.10156 -0.02539,0.17772 -0.07617,0.2285l-6.85508,3.2752c0,0.05078 -0.02539,0.07617 -0.07617,0.07617M126.8701,215.72961c-0.15234,0 -0.2285,-0.07617 -0.2285,-0.2285v-3.65604c0,-0.15234 0.05078,-0.2285 0.15234,-0.2285c0.15234,0 0.2285,0.07617 0.2285,0.2285v3.65604c0,0.15234 -0.05078,0.2285 -0.15234,0.2285M120.01502,215.34877l-5.48406,-0.38084c-0.10156,0 -0.15234,-0.05078 -0.15234,-0.15234c0,-0.15234 0.07617,-0.2285 0.2285,-0.2285l5.4079,0.38084c0.15234,0 0.2285,0.05078 0.2285,0.15234c0,0.15234 -0.07617,0.2285 -0.2285,0.2285M114.60712,218.62398c-0.15234,0 -0.2285,-0.07617 -0.2285,-0.2285v-3.57987c0,-0.10156 0.05078,-0.15234 0.15234,-0.15234c0.15234,0 0.2285,0.05078 0.2285,0.15234v3.57987c0,0.05078 -0.05078,0.12695 -0.15234,0.2285M114.53096,214.96794c-0.10156,0 -0.15234,-0.05078 -0.15234,-0.15234v-8.98777c0,-0.10156 0.05078,-0.15234 0.15234,-0.15234c0.15234,0 0.2285,0.05078 0.2285,0.15234v8.98777c0,0.10156 -0.07617,0.15234 -0.2285,0.15234M118.87251,206.05633h-4.34155c-0.10156,0 -0.15234,-0.07617 -0.15234,-0.2285c0,-0.10156 0.05078,-0.15234 0.15234,-0.15234h4.34155c0.15234,0 0.2285,0.07617 0.2285,0.2285c0,0.10156 -0.07617,0.15234 -0.2285,0.15234M114.53096,214.96794h-0.07617c-0.05078,0 -0.07617,-0.07617 -0.07617,-0.2285l4.34155,-8.98777c0,-0.05078 0.07617,-0.07617 0.2285,-0.07617c0.10156,0.10156 0.12695,0.20311 0.07617,0.30467l-4.26538,8.9116c-0.05078,0.05078 -0.12695,0.07617 -0.2285,0.07617M121.53837,209.48387c-0.10156,0 -0.15234,-0.02539 -0.15234,-0.07617l-2.66586,-3.42754c-0.15234,-0.15234 -0.12695,-0.2285 0.07617,-0.2285c0.05078,-0.05078 0.12695,-0.05078 0.2285,0l2.66586,3.42754c0.15234,0.15234 0.12695,0.2285 -0.07617,0.2285c-0.05078,0.05078 -0.07617,0.07617 -0.07617,0.07617M114.53096,214.96794c-0.05078,0 -0.10156,-0.02539 -0.15234,-0.07617c0,-0.10156 0.02539,-0.17772 0.07617,-0.2285l6.93125,-5.56023c0.15234,0 0.25389,0.02539 0.30467,0.07617c0.15234,0.15234 0.12695,0.2285 -0.07617,0.2285l-6.93125,5.56023h-0.15234M120.01502,215.34877c-0.10156,-0.05078 -0.15234,-0.15234 -0.15234,-0.30467l1.44718,-5.78873c0.05078,-0.10156 0.15234,-0.15234 0.30467,-0.15234c0.20311,0 0.2285,0.07617 0.07617,0.2285l-1.44718,5.8649c-0.10156,0.10156 -0.17772,0.15234 -0.2285,0.15234M126.79393,211.9974h-0.07617l-5.25556,-2.51353c-0.10156,-0.10156 -0.12695,-0.20311 -0.07617,-0.30467c0,-0.05078 0.07617,-0.07617 0.2285,-0.07617l5.33173,2.5897c0.05078,0 0.07617,0.07617 0.07617,0.2285c-0.05078,0.05078 -0.12695,0.07617 -0.2285,0.07617M118.87251,206.05633c-0.10156,0 -0.15234,-0.05078 -0.15234,-0.15234c0,-0.15234 0.05078,-0.2285 0.15234,-0.2285h7.99759c0.10156,0 0.15234,0.05078 0.15234,0.15234c0,0.15234 -0.05078,0.2285 -0.15234,0.2285h-7.99759M121.53837,209.48387c-0.10156,0 -0.15234,-0.02539 -0.15234,-0.07617c-0.10156,-0.10156 -0.07617,-0.20311 0.07617,-0.30467l5.25556,-3.42754c0.10156,-0.05078 0.20311,-0.02539 0.30467,0.07617c0.05078,0.05078 0.02539,0.12695 -0.07617,0.2285l-5.33173,3.50371h-0.07617M126.79393,211.9974c-0.10156,0 -0.15234,-0.05078 -0.15234,-0.15234v-6.01724c0,-0.10156 0.07617,-0.15234 0.2285,-0.15234c0.10156,0 0.15234,0.05078 0.15234,0.15234v6.01724c0,0.10156 -0.07617,0.15234 -0.2285,0.15234M87.94848,226.62157c-0.05078,0 -0.07617,-0.02539 -0.07617,-0.07617l-4.26538,-2.43736c-0.05078,0 -0.07617,-0.07617 -0.07617,-0.2285c0.10156,-0.10156 0.20311,-0.12695 0.30467,-0.07617l4.18922,2.43736c0.10156,0.10156 0.12695,0.20311 0.07617,0.30467c-0.05078,0 -0.07617,0.01269 -0.07617,0.03808c0,0.02539 -0.02539,0.03808 -0.07617,0.03808M75.15234,235.2285c-0.10156,0 -0.15234,-0.07617 -0.15234,-0.2285v-5.78873c0,-0.10156 0.05078,-0.15234 0.15234,-0.15234c0.15234,0 0.2285,0.05078 0.2285,0.15234v5.78873c0,0.15234 -0.07617,0.2285 -0.2285,0.2285M82.92142,230.12528c-0.10156,0 -0.15234,-0.05078 -0.15234,-0.15234c-0.10156,-0.05078 -0.10156,-0.12695 0,-0.2285l5.02706,-3.50371c0.05078,-0.05078 0.15234,-0.02539 0.30467,0.07617c0.15234,0.15234 0.12695,0.2285 -0.07617,0.2285l-5.02706,3.50371l-0.07617,0.07617M82.92142,230.12528c-0.15234,-0.05078 -0.2285,-0.12695 -0.2285,-0.2285l0.83784,-5.94107c0,-0.15234 0.07617,-0.20311 0.2285,-0.15234c0.10156,0 0.15234,0.05078 0.15234,0.15234l-0.83784,5.94107c0,0.15234 -0.05078,0.2285 -0.15234,0.2285M82.92142,230.12528l-7.61675,-0.68551c-0.10156,0 -0.15234,-0.07617 -0.15234,-0.2285c0,-0.10156 0.07617,-0.15234 0.2285,-0.15234l7.54059,0.68551c0.20311,0 0.25389,0.05078 0.15234,0.15234c0,0.15234 -0.05078,0.2285 -0.15234,0.2285M75.30467,235.2285l-0.15234,-0.15234c0,-0.10156 0.02539,-0.17772 0.07617,-0.2285l7.61675,-5.10323c0.05078,-0.05078 0.12695,-0.02539 0.2285,0.07617c0.05078,0.05078 0.02539,0.12695 -0.07617,0.2285l-7.54059,5.10323c-0.05078,0 -0.07617,0.01269 -0.07617,0.03808c0,0.02539 -0.02539,0.03808 -0.07617,0.03808M87.79615,230.81078l-4.87472,-0.68551c-0.15234,-0.05078 -0.2285,-0.12695 -0.2285,-0.2285c0.10156,-0.15234 0.17772,-0.20311 0.2285,-0.15234l4.87472,0.68551c0.25389,0 0.30467,0.07617 0.15234,0.2285c0,0.10156 -0.05078,0.15234 -0.15234,0.15234M87.79615,230.81078c-0.15234,0 -0.2285,-0.05078 -0.2285,-0.15234l0.15234,-4.26538c0,-0.10156 0.07617,-0.15234 0.2285,-0.15234c0.10156,0 0.15234,0.05078 0.15234,0.15234l-0.15234,4.26538c0,0.10156 -0.05078,0.15234 -0.15234,0.15234M87.87232,235.2285c-0.15234,0 -0.2285,-0.07617 -0.2285,-0.2285l-0.07617,-4.34155c0,-0.15234 0.07617,-0.2285 0.2285,-0.2285c0.10156,0 0.15234,0.07617 0.15234,0.2285l0.07617,4.34155c0,0.05078 -0.05078,0.12695 -0.15234,0.2285M87.87232,235.2285c-0.05078,0 -0.07617,-0.01269 -0.07617,-0.03808c0,-0.02539 -0.02539,-0.03808 -0.07617,-0.03808l-4.95089,-5.10323c-0.10156,-0.10156 -0.10156,-0.20311 0,-0.30467c0.10156,-0.10156 0.20311,-0.10156 0.30467,0l4.95089,5.10323c0.10156,0.10156 0.10156,0.20311 0,0.30467c-0.10156,0.05078 -0.15234,0.07617 -0.15234,0.07617M80.78873,235.45701h-0.07617c-0.10156,-0.10156 -0.12695,-0.17772 -0.07617,-0.2285l2.13269,-5.4079c0,-0.20311 0.07617,-0.2285 0.2285,-0.07617c0.20311,0 0.2285,0.07617 0.07617,0.2285l-2.13269,5.4079c0,0.05078 -0.05078,0.07617 -0.15234,0.07617M80.78873,235.45701l-5.48406,-0.2285c-0.10156,-0.10156 -0.15234,-0.17772 -0.15234,-0.2285c0,-0.15234 0.07617,-0.20311 0.2285,-0.15234l5.4079,0.2285c0.15234,0 0.2285,0.07617 0.2285,0.2285c-0.10156,0.10156 -0.17772,0.15234 -0.2285,0.15234M84.36861,240.10323c-0.10156,0 -0.15234,-0.02539 -0.15234,-0.07617l-3.57987,-4.64622c-0.15234,-0.15234 -0.12695,-0.2285 0.07617,-0.2285c0.05078,-0.05078 0.12695,-0.05078 0.2285,0l3.57987,4.64622c0.10156,0.10156 0.07617,0.20311 -0.07617,0.30467h-0.07617M84.36861,240.10323h-0.15234c-0.10156,-0.10156 -0.10156,-0.20311 0,-0.30467l3.50371,-4.87472c0.05078,-0.15234 0.12695,-0.17772 0.2285,-0.07617c0.10156,0.10156 0.12695,0.20311 0.07617,0.30467l-3.50371,4.87472c-0.05078,0.05078 -0.10156,0.07617 -0.15234,0.07617M84.36861,240.10323c-0.05078,0 -0.12695,-0.05078 -0.2285,-0.15234l-1.44718,-10.05412c0,-0.10156 0.07617,-0.15234 0.2285,-0.15234c0.10156,-0.10156 0.15234,-0.05078 0.15234,0.15234l1.44718,9.97795c0.05078,0.15234 0,0.2285 -0.15234,0.2285M87.94848,244.52094c-0.15234,0 -0.2285,-0.05078 -0.2285,-0.15234l-0.07617,-9.36861c0,-0.10156 0.07617,-0.15234 0.2285,-0.15234c0.10156,0 0.15234,0.05078 0.15234,0.15234l0.07617,9.36861c0,0.10156 -0.05078,0.15234 -0.15234,0.15234M87.94848,244.52094c-0.10156,0 -0.15234,-0.02539 -0.15234,-0.07617l-3.57987,-4.41772c-0.15234,-0.15234 -0.15234,-0.2285 0,-0.2285c0.10156,-0.10156 0.20311,-0.10156 0.30467,0l3.57987,4.41772c0,0.15234 -0.02539,0.25389 -0.07617,0.30467h-0.07617M75.38084,241.24574c-0.15234,0 -0.2285,-0.07617 -0.2285,-0.2285v-6.01724c0,-0.10156 0.05078,-0.15234 0.15234,-0.15234c0.15234,0 0.2285,0.05078 0.2285,0.15234v6.0934c0,0.10156 -0.05078,0.15234 -0.15234,0.15234M75.38084,241.24574c-0.10156,0 -0.15234,-0.02539 -0.15234,-0.07617c-0.10156,-0.05078 -0.10156,-0.12695 0,-0.2285l5.4079,-5.78873c0.10156,-0.10156 0.20311,-0.10156 0.30467,0c0.05078,0.10156 0.05078,0.17772 0,0.2285l-5.48406,5.78873c-0.05078,0.05078 -0.07617,0.07617 -0.07617,0.07617M79.11305,243.14993h-0.07617l-3.73221,-1.90419c-0.10156,-0.05078 -0.15234,-0.15234 -0.15234,-0.30467c0.05078,-0.05078 0.15234,-0.07617 0.30467,-0.07617l3.80838,1.90419c0.05078,0.05078 0.07617,0.12695 0.07617,0.2285c-0.10156,0.10156 -0.17772,0.15234 -0.2285,0.15234M79.11305,243.14993c-0.10156,-0.10156 -0.15234,-0.17772 -0.15234,-0.2285l1.67569,-7.69292c0,-0.10156 0.07617,-0.15234 0.2285,-0.15234c0.20311,0 0.2285,0.07617 0.07617,0.2285l-1.59952,7.69292c0,0.10156 -0.07617,0.15234 -0.2285,0.15234M79.11305,243.14993c-0.05078,-0.05078 -0.10156,-0.07617 -0.15234,-0.07617c0,-0.15234 0.02539,-0.25389 0.07617,-0.30467l5.25556,-3.0467c0.10156,0 0.17772,0.02539 0.2285,0.07617c0.05078,0.10156 0.02539,0.20311 -0.07617,0.30467l-5.17939,2.97053c-0.05078,0.05078 -0.10156,0.07617 -0.15234,0.07617M83.22609,247.26297h-0.07617c-0.10156,0 -0.15234,-0.05078 -0.15234,-0.15234l1.14251,-7.23592c0.10156,-0.10156 0.17772,-0.15234 0.2285,-0.15234c0.25389,0 0.30467,0.07617 0.15234,0.2285l-1.14251,7.15975c0,0.10156 -0.05078,0.15234 -0.15234,0.15234M83.22609,247.26297h-0.15234l-4.03688,-4.18922c-0.15234,-0.15234 -0.15234,-0.2285 0,-0.2285c0.05078,-0.05078 0.12695,-0.05078 0.2285,0l4.11305,4.11305c0.10156,0.10156 0.10156,0.20311 0,0.30467h-0.15234M83.22609,247.26297c-0.10156,0 -0.15234,-0.02539 -0.15234,-0.07617c-0.15234,-0.15234 -0.12695,-0.2285 0.07617,-0.2285l4.64622,-2.74203c0.15234,-0.05078 0.25389,-0.05078 0.30467,0c0,0.15234 -0.02539,0.25389 -0.07617,0.30467l-4.72239,2.74203h-0.07617M88.02465,250.91902c-0.15234,0 -0.2285,-0.05078 -0.2285,-0.15234l-0.07617,-6.39807c0,-0.15234 0.07617,-0.2285 0.2285,-0.2285c0.10156,0 0.15234,0.07617 0.15234,0.2285l0.07617,6.39807c0,0.10156 -0.05078,0.15234 -0.15234,0.15234M88.02465,250.91902h-0.15234l-4.79856,-3.65604c-0.10156,-0.10156 -0.10156,-0.20311 0,-0.30467c0.05078,-0.05078 0.12695,-0.05078 0.2285,0l4.79856,3.65604c0.10156,0.10156 0.12695,0.17772 0.07617,0.2285c-0.05078,0.05078 -0.10156,0.07617 -0.15234,0.07617M75.30467,246.65363c-0.10156,0 -0.15234,-0.05078 -0.15234,-0.15234v-5.48406c0,-0.10156 0.07617,-0.15234 0.2285,-0.15234c0.10156,0 0.15234,0.05078 0.15234,0.15234v5.48406c0,0.10156 -0.07617,0.15234 -0.2285,0.15234M75.30467,246.65363c-0.05078,0 -0.07617,-0.02539 -0.07617,-0.07617c-0.10156,-0.05078 -0.10156,-0.12695 0,-0.2285l3.80838,-3.57987c0.10156,0 0.17772,0.02539 0.2285,0.07617c0.05078,0.10156 0.05078,0.17772 0,0.2285l-3.80838,3.57987h-0.15234M78.0467,250.84285c-0.10156,0 -0.15234,-0.07617 -0.15234,-0.2285l1.06635,-7.69292c0,-0.10156 0.07617,-0.15234 0.2285,-0.15234c0.10156,0 0.15234,0.07617 0.15234,0.2285l-1.06635,7.69292c0,0.10156 -0.07617,0.15234 -0.2285,0.15234M78.0467,250.84285c-0.05078,0 -0.10156,-0.02539 -0.15234,-0.07617c-0.10156,-0.05078 -0.07617,-0.15234 0.07617,-0.30467l5.10323,-3.50371c0.15234,-0.05078 0.25389,-0.05078 0.30467,0c0.05078,0.10156 0.02539,0.20311 -0.07617,0.30467l-5.10323,3.57987h-0.15234M86.34896,254.57506c-0.10156,0 -0.15234,-0.05078 -0.15234,-0.15234l-3.12287,-7.23592c-0.15234,-0.15234 -0.12695,-0.2285 0.07617,-0.2285c0.15234,-0.15234 0.2285,-0.12695 0.2285,0.07617l3.12287,7.31208c0.05078,0.05078 0.02539,0.12695 -0.07617,0.2285h-0.07617M86.34896,254.57506h-0.07617c-0.10156,-0.10156 -0.12695,-0.20311 -0.07617,-0.30467l1.59952,-3.57987c0.05078,-0.10156 0.15234,-0.15234 0.30467,-0.15234c0.10156,0.10156 0.12695,0.20311 0.07617,0.30467l-1.67569,3.65604c-0.05078,0.05078 -0.10156,0.07617 -0.15234,0.07617M88.17699,260.28763c-0.15234,0 -0.2285,-0.07617 -0.2285,-0.2285l-0.15234,-9.29244c0,-0.15234 0.07617,-0.2285 0.2285,-0.2285c0.10156,0 0.15234,0.07617 0.15234,0.2285l0.15234,9.29244c0,0.05078 -0.05078,0.12695 -0.15234,0.2285M88.17699,260.28763c-0.05078,0 -0.12695,-0.05078 -0.2285,-0.15234l-1.75185,-5.71257c-0.05078,-0.05078 -0.02539,-0.12695 0.07617,-0.2285c0.15234,0 0.2285,0.05078 0.2285,0.15234l1.82802,5.6364c0,0.15234 -0.05078,0.2285 -0.15234,0.2285v0.07617M80.25556,256.78392c-0.05078,0 -0.07617,-0.02539 -0.07617,-0.07617c-0.10156,0 -0.15234,-0.07617 -0.15234,-0.2285l2.97053,-9.44478c0.10156,-0.10156 0.20311,-0.12695 0.30467,-0.07617c0.10156,0 0.12695,0.07617 0.07617,0.2285l-2.97053,9.44478c0,0.10156 -0.05078,0.15234 -0.15234,0.15234M80.25556,256.78392c-0.05078,0 -0.12695,-0.05078 -0.2285,-0.15234l-2.13269,-5.94107c-0.05078,-0.05078 -0.02539,-0.12695 0.07617,-0.2285c0.15234,0 0.25389,0.05078 0.30467,0.15234l2.13269,5.8649c0,0.15234 -0.02539,0.2285 -0.07617,0.2285l-0.07617,0.07617M78.0467,250.84285c-0.10156,0 -0.15234,-0.02539 -0.15234,-0.07617l-2.74203,-5.10323c0,-0.15234 0.02539,-0.2285 0.07617,-0.2285c0.10156,-0.05078 0.20311,-0.02539 0.30467,0.07617l2.66586,5.02706c0.05078,0.15234 0.02539,0.25389 -0.07617,0.30467h-0.07617M75.30467,254.65123c-0.10156,0 -0.15234,-0.05078 -0.15234,-0.15234v-8.9116c0,-0.10156 0.07617,-0.15234 0.2285,-0.15234c0.10156,0 0.15234,0.05078 0.15234,0.15234v8.9116c0,0.10156 -0.07617,0.15234 -0.2285,0.15234M75.30467,254.65123h-0.07617c-0.05078,-0.05078 -0.07617,-0.15234 -0.07617,-0.30467l2.74203,-3.80838c0.05078,-0.05078 0.15234,-0.07617 0.30467,-0.07617c0.10156,0.10156 0.10156,0.20311 0,0.30467l-2.74203,3.80838c0,0.05078 -0.05078,0.07617 -0.15234,0.07617M80.25556,256.78392c-0.05078,-0.05078 -0.07617,-0.07617 -0.07617,-0.07617l-4.95089,-2.05652c-0.05078,-0.05078 -0.07617,-0.12695 -0.07617,-0.2285c0.05078,-0.10156 0.12695,-0.15234 0.2285,-0.15234l4.95089,2.13269c0.05078,0 0.07617,0.07617 0.07617,0.2285c0,0.10156 -0.05078,0.15234 -0.15234,0.15234M80.25556,256.78392c-0.05078,0 -0.12695,-0.05078 -0.2285,-0.15234c0,-0.15234 0.05078,-0.2285 0.15234,-0.2285l6.0934,-2.20886c0.15234,0 0.2285,0.05078 0.2285,0.15234c0.05078,0.05078 0.02539,0.12695 -0.07617,0.2285l-6.16957,2.13269v0.07617M75.38084,260.05912c-0.10156,0 -0.15234,-0.02539 -0.15234,-0.07617c-0.15234,-0.15234 -0.15234,-0.2285 0,-0.2285l4.87472,-3.35137c0.05078,-0.05078 0.15234,-0.02539 0.30467,0.07617c0,0.10156 -0.02539,0.17772 -0.07617,0.2285l-4.87472,3.35137h-0.07617M75.38084,260.05912c-0.15234,0 -0.2285,-0.05078 -0.2285,-0.15234v-5.4079c0,-0.15234 0.05078,-0.2285 0.15234,-0.2285c0.15234,0 0.2285,0.07617 0.2285,0.2285v5.4079c0,0.10156 -0.05078,0.15234 -0.15234,0.15234M75.15234,264.40067c-0.10156,0 -0.15234,-0.07617 -0.15234,-0.2285v-4.26538c0,-0.10156 0.05078,-0.15234 0.15234,-0.15234c0.15234,0 0.2285,0.05078 0.2285,0.15234v4.26538c0,0.15234 -0.07617,0.2285 -0.2285,0.2285M80.17939,264.40067h-4.87472c-0.10156,0 -0.15234,-0.07617 -0.15234,-0.2285c0,-0.10156 0.05078,-0.15234 0.15234,-0.15234h4.87472c0.15234,0 0.2285,0.05078 0.2285,0.15234c0,0.15234 -0.07617,0.2285 -0.2285,0.2285M80.17939,264.40067c-0.05078,-0.05078 -0.10156,-0.07617 -0.15234,-0.07617l-4.79856,-4.26538c-0.10156,-0.10156 -0.10156,-0.20311 0,-0.30467c0,-0.15234 0.07617,-0.15234 0.2285,0l4.87472,4.26538c0.10156,0.10156 0.10156,0.20311 0,0.30467c-0.05078,0 -0.07617,0.01269 -0.07617,0.03808c0,0.02539 -0.02539,0.03808 -0.07617,0.03808M80.17939,264.40067c-0.10156,0 -0.15234,-0.07617 -0.15234,-0.2285v-7.61675c0,-0.10156 0.07617,-0.15234 0.2285,-0.15234c0.10156,0 0.15234,0.05078 0.15234,0.15234v7.69292c0,0.10156 -0.07617,0.15234 -0.2285,0.15234M80.17939,264.40067c-0.05078,0 -0.07617,-0.01269 -0.07617,-0.03808c0,-0.02539 -0.02539,-0.03808 -0.07617,-0.03808c-0.10156,-0.10156 -0.10156,-0.20311 0,-0.30467l4.64622,-4.34155c0.05078,-0.05078 0.12695,-0.05078 0.2285,0c0.10156,0.10156 0.10156,0.20311 0,0.30467l-4.57005,4.34155c-0.05078,0 -0.07617,0.01269 -0.07617,0.03808c0,0.02539 -0.02539,0.03808 -0.07617,0.03808M84.74945,259.98296h-0.07617l-4.57005,-3.2752c-0.10156,-0.05078 -0.10156,-0.12695 0,-0.2285c0,-0.20311 0.07617,-0.2285 0.2285,-0.07617l4.57005,3.2752c0.05078,0.10156 0.05078,0.17772 0,0.2285c0,0.05078 -0.05078,0.07617 -0.15234,0.07617M84.74945,259.98296c-0.10156,0 -0.15234,-0.07617 -0.15234,-0.2285l1.59952,-5.4079c0,-0.10156 0.07617,-0.15234 0.2285,-0.15234c0.20311,0 0.2285,0.07617 0.07617,0.2285l-1.52335,5.48406c-0.05078,0.05078 -0.12695,0.07617 -0.2285,0.07617M88.17699,260.28763h-0.07617l-3.35137,-0.30467c-0.10156,0 -0.15234,-0.05078 -0.15234,-0.15234c0,-0.15234 0.07617,-0.2285 0.2285,-0.2285l3.35137,0.30467c0.10156,0 0.15234,0.05078 0.15234,0.15234c0,0.15234 -0.05078,0.2285 -0.15234,0.2285M88.02465,264.40067c-0.15234,0 -0.2285,-0.07617 -0.2285,-0.2285l0.15234,-4.11305c0,-0.10156 0.07617,-0.15234 0.2285,-0.15234c0.10156,0 0.15234,0.05078 0.15234,0.15234l-0.15234,4.11305c0,0.15234 -0.05078,0.2285 -0.15234,0.2285M88.02465,264.40067c-0.10156,-0.05078 -0.15234,-0.07617 -0.15234,-0.07617l-3.2752,-4.41772c0,-0.10156 0.02539,-0.17772 0.07617,-0.2285c0.15234,-0.15234 0.2285,-0.15234 0.2285,0l3.2752,4.41772c0.05078,0.05078 0.02539,0.12695 -0.07617,0.2285c-0.05078,0.05078 -0.07617,0.07617 -0.07617,0.07617M88.02465,264.40067h-7.84526c-0.10156,0 -0.15234,-0.07617 -0.15234,-0.2285c0,-0.10156 0.05078,-0.15234 0.15234,-0.15234h7.84526c0.10156,0 0.15234,0.05078 0.15234,0.15234c0,0.15234 -0.05078,0.2285 -0.15234,0.2285M84.44478,209.86471l-6.62658,-0.15234c-0.10156,0 -0.15234,-0.05078 -0.15234,-0.15234c0,-0.15234 0.05078,-0.2285 0.15234,-0.2285l6.62658,0.15234c0.10156,0 0.15234,0.07617 0.15234,0.2285c0,0.10156 -0.05078,0.15234 -0.15234,0.15234M82.92142,214.3586v-0.07617c-0.10156,0 -0.15234,-0.07617 -0.15234,-0.2285l1.44718,-4.41772c0.05078,-0.10156 0.15234,-0.15234 0.30467,-0.15234c0.20311,0 0.2285,0.07617 0.07617,0.2285l-1.44718,4.49389c-0.10156,0.10156 -0.17772,0.15234 -0.2285,0.15234M82.92142,214.3586l-0.07617,-0.07617l-5.10323,-4.57005c-0.15234,-0.10156 -0.17772,-0.20311 -0.07617,-0.30467c0.10156,-0.10156 0.20311,-0.10156 0.30467,0l5.10323,4.57005c0.10156,0.10156 0.10156,0.20311 0,0.30467c-0.05078,0.05078 -0.10156,0.07617 -0.15234,0.07617M78.0467,217.70997c-0.05078,0 -0.10156,-0.02539 -0.15234,-0.07617c0,-0.15234 0.02539,-0.25389 0.07617,-0.30467l4.87472,-3.35137c0.15234,-0.15234 0.2285,-0.12695 0.2285,0.07617c0.05078,0.10156 0.05078,0.17772 0,0.2285l-4.87472,3.35137c-0.05078,0.05078 -0.10156,0.07617 -0.15234,0.07617M82.92142,214.3586l-0.15234,-0.15234c0,-0.10156 0.02539,-0.17772 0.07617,-0.2285l7.46442,-4.57005c0.15234,-0.05078 0.25389,-0.02539 0.30467,0.07617c0.05078,0.05078 0.02539,0.12695 -0.07617,0.2285l-7.46442,4.57005c-0.05078,0 -0.07617,0.01269 -0.07617,0.03808c0,0.02539 -0.02539,0.03808 -0.07617,0.03808M89.548,214.8156l-6.62658,-0.45701c-0.10156,-0.10156 -0.15234,-0.17772 -0.15234,-0.2285c0,-0.15234 0.07617,-0.20311 0.2285,-0.15234l6.55041,0.45701c0.15234,0 0.20311,0.07617 0.15234,0.2285c0,0.10156 -0.05078,0.15234 -0.15234,0.15234M78.42754,224.33654h-0.07617c-0.10156,-0.10156 -0.12695,-0.20311 -0.07617,-0.30467l4.49389,-9.97795c0.10156,-0.10156 0.17772,-0.12695 0.2285,-0.07617c0.10156,0 0.15234,0.07617 0.15234,0.2285l-4.57005,9.97795c0,0.10156 -0.05078,0.15234 -0.15234,0.15234M83.6831,224.18421l-0.07617,-0.07617c-0.05078,0 -0.07617,-0.07617 -0.07617,-0.2285l3.42754,-5.78873c0,-0.05078 0.07617,-0.07617 0.2285,-0.07617c0.10156,0.15234 0.12695,0.25389 0.07617,0.30467l-3.35137,5.71257c-0.10156,0.10156 -0.17772,0.15234 -0.2285,0.15234M87.11064,218.39547c-0.10156,0 -0.15234,-0.02539 -0.15234,-0.07617l-4.11305,-4.03688c-0.10156,-0.10156 -0.10156,-0.20311 0,-0.30467c0.05078,-0.05078 0.12695,-0.05078 0.2285,0l4.11305,4.11305c0.05078,0.05078 0.07617,0.12695 0.07617,0.2285c-0.10156,0.05078 -0.15234,0.07617 -0.15234,0.07617M83.6831,224.18421c-0.10156,0 -0.15234,-0.07617 -0.15234,-0.2285l-0.76168,-9.82561c0,-0.10156 0.05078,-0.15234 0.15234,-0.15234c0.15234,-0.05078 0.2285,0 0.2285,0.15234l0.76168,9.82561c0,0.15234 -0.05078,0.2285 -0.15234,0.2285z"></path></g><path d="M146.15958,264.40067v-58.80135h1.12247v58.80135z"></path></g></g></svg>